<svg viewBox="0 0 225 61" fill="none" xmlns="http://www.w3.org/2000/svg">
<path d="M212.044 54.336C210.656 54.3682 209.376 54.4196 208.101 54.4871C207.631 54.5129 207.278 54.2845 207.043 53.8632C206.526 52.9306 206.012 51.9979 205.515 51.0524C205.447 50.9206 205.5 50.6568 205.59 50.525C205.835 50.1594 206.096 49.8046 206.357 49.45C206.808 48.8377 207.258 48.2257 207.625 47.5598C208.811 45.3954 209.905 43.1731 210.986 40.9476C211.483 39.9282 211.5 38.7768 211.135 37.574C211.122 37.5345 211.117 37.4938 211.11 37.4324C211.105 37.3939 211.099 37.3473 211.09 37.2878C212.974 37.6609 214.826 38.0468 216.677 38.5002C217.203 38.6289 217.658 39.3107 217.661 39.9507C217.665 40.5994 217.635 41.2426 217.604 41.8859C217.594 42.1005 217.583 42.3151 217.575 42.5299C217.57 42.6438 217.563 42.7567 217.555 42.8916L217.546 43.0584C217.542 43.1283 217.537 43.2044 217.533 43.2889C219.491 43.4722 221.417 43.6877 223.381 43.945C223.952 45.7717 224.499 47.5759 224.989 49.3865C225.037 49.557 224.921 49.7789 224.82 49.9332C224.342 50.6603 223.861 51.3837 223.38 52.107C222.429 53.5367 221.479 54.9656 220.561 56.42C220.13 57.105 219.845 57.9122 219.595 58.7098C219.513 58.9765 219.539 59.29 219.567 59.6217C219.58 59.7819 219.593 59.9465 219.595 60.112C218.745 60.0059 217.878 59.9029 217.01 59.8097C216.857 59.7933 216.705 59.7764 216.552 59.7596C216.016 59.7004 215.483 59.6414 214.951 59.6039C214.683 59.5846 214.532 59.4913 214.407 59.2211C213.738 57.7675 213.658 56.3782 214.413 55.0789C215.13 53.8446 215.857 52.6177 216.585 51.3902C216.936 50.7977 217.287 50.2052 217.637 49.6116C218.053 48.9073 218.261 48.1516 217.741 47.2832C217.643 47.1192 217.402 46.9616 217.218 46.923C216.965 46.8679 216.709 46.849 216.455 46.8303C216.308 46.8195 216.163 46.8088 216.017 46.7912C215.159 46.6883 214.582 47.0452 214.199 47.7399L213.903 48.2745C213.433 49.1258 212.963 49.9762 212.466 50.8112C211.836 51.8532 211.435 52.937 212.044 54.336Z" fill="currentColor"/>
<path d="M207.45 33.3707C205.489 33.3353 203.587 33.3385 201.661 33.3739L201.656 33.2367L201.648 33.0343L201.632 32.6006C201.6 31.7235 201.571 30.9224 201.504 30.1096C201.432 29.267 200.903 28.7428 200.047 28.6399C198.52 28.4534 196.998 28.3183 195.483 28.1929C195.302 28.177 195.12 28.1698 194.932 28.1624L194.811 28.1575C195.4 30.2093 195.388 30.7978 194.734 32.6117C194.59 33.0081 194.421 33.3924 194.253 33.7764L194.252 33.7779C194.146 34.0196 194.04 34.2613 193.94 34.5059C193.744 34.9883 193.554 35.4742 193.364 35.9601L193.363 35.9624V35.9639L193.361 35.9675C192.549 38.0446 191.737 40.1215 190.428 41.9285C190.36 42.025 190.374 42.2662 190.446 42.3756C191.031 43.2696 191.62 44.1605 192.22 45.0384C192.487 45.4276 192.868 45.5916 193.325 45.5112C194.478 45.3086 195.637 45.1285 196.805 44.9645C196.875 44.954 196.948 44.9585 197.035 44.9638C197.082 44.9667 197.132 44.9698 197.189 44.9709C196.532 43.7231 196.683 42.6907 197.156 41.6712C197.593 40.7268 198.011 39.7697 198.429 38.8136C198.524 38.5943 198.62 38.3751 198.716 38.1561C199.043 37.41 199.596 36.9855 200.475 37.0048C200.856 37.0144 201.242 37.0241 201.616 36.9823C201.914 36.9501 202.062 37.0884 202.217 37.3232C202.758 38.1561 202.606 38.9087 202.255 39.6516C201.978 40.2384 201.701 40.826 201.424 41.4134C200.843 42.648 200.262 43.8823 199.67 45.1092C198.978 46.5468 199.022 47.9779 199.857 49.4541C200.015 49.7338 200.178 49.8464 200.493 49.8368C201.917 49.7949 203.352 49.8014 204.796 49.8175C204.873 49.8198 204.949 49.8056 205.025 49.7915C205.056 49.7859 205.087 49.7803 205.117 49.7757C204.799 48.322 204.891 47.592 205.607 46.2444C206.086 45.3424 206.567 44.4428 207.047 43.5432C207.528 42.6434 208.009 41.7437 208.487 40.8415C208.593 40.641 208.72 40.4432 208.848 40.2449C209.155 39.7659 209.465 39.2843 209.486 38.7543C209.507 38.2167 209.231 37.6266 208.957 37.0403C208.847 36.8058 208.738 36.572 208.648 36.3423C208.264 35.3518 207.86 34.3644 207.45 33.3707Z" fill="currentColor"/>
<path d="M188.039 18.5544C189.747 18.3389 191.495 18.146 193.257 17.9787C193.455 17.96 193.654 17.9453 193.853 17.9307C194.234 17.9028 194.614 17.8749 194.987 17.8179C195.385 17.7568 195.536 17.9176 195.703 18.2489C196.6 20.0499 196.573 21.7769 195.899 23.3849C195.019 25.4783 194.124 27.5639 193.228 29.649C192.314 31.7761 191.401 33.9027 190.505 36.0368C190.343 36.4199 190.268 36.8453 190.193 37.2715C190.151 37.5104 190.108 37.7504 190.051 37.9825C190 38.1915 189.938 38.4359 189.792 38.5678C188.791 39.4876 187.548 39.9764 186.282 40.4106C185.882 40.5475 185.481 40.6797 185.073 40.8138C184.658 40.9506 184.236 41.0893 183.804 41.2371C183.629 40.9087 183.446 40.5848 183.262 40.2614C182.887 39.6002 182.513 38.9403 182.22 38.2494C182.036 37.8184 182.122 37.1785 182.291 36.725C183.043 34.709 183.816 32.7035 184.59 30.6978C185.169 29.1966 185.748 27.6953 186.318 26.1893C186.479 25.7638 186.654 25.3437 186.829 24.9236C187.372 23.6192 187.916 22.3143 188.033 20.8474C188.072 20.3476 188.061 19.8355 188.05 19.2963V19.294V19.2918C188.045 19.0518 188.04 18.8065 188.039 18.5544Z" fill="currentColor"/>
<path fill-rule="evenodd" clip-rule="evenodd" d="M172.148 30.3453C171.902 29.9873 171.652 29.6241 171.394 29.2542C174.351 27.5369 177.709 26.868 181.082 26.2087C181.07 26.1686 181.062 26.1358 181.055 26.1081C181.046 26.069 181.039 26.0402 181.025 26.0157C179.697 23.7195 178.315 21.4393 176.865 19.1848C176.794 19.0755 176.562 18.9662 176.434 18.9822C173.804 19.3038 171.21 19.7058 168.645 20.169C168.045 20.2783 167.685 20.6417 167.534 21.211C167.321 22.0093 167.106 22.8074 166.892 23.6055L166.889 23.6168L166.886 23.6293L166.882 23.6429L166.856 23.7415C166.35 25.6242 165.845 27.5068 165.353 29.3925C165.305 29.5726 165.388 29.8621 165.513 30.0068C165.814 30.353 166.131 30.6844 166.448 31.0158V31.0166C166.62 31.1959 166.791 31.3752 166.96 31.5569C168.345 33.0395 169.703 34.5446 171.037 36.0787C173.37 35.3068 175.721 34.5929 178.158 33.9175C177.703 33.0427 177.254 32.2001 176.788 31.3382C176.195 31.4523 175.614 31.5713 175.038 31.6893L175.035 31.6899C174.573 31.7846 174.114 31.8785 173.656 31.9686C173.513 31.9975 173.26 31.9429 173.186 31.8399C172.837 31.3496 172.496 30.8527 172.148 30.3453ZM172.309 25.5526C172.443 24.4173 172.609 23.34 173.572 22.5585C173.618 22.6465 173.664 22.7338 173.71 22.8206L173.777 22.9496L173.779 22.9529C174.068 23.5027 174.347 24.0314 174.592 24.5749C174.642 24.6875 174.526 24.9255 174.413 25.0187C173.831 25.5044 173.112 25.5944 172.309 25.5526Z" fill="currentColor"/>
<path fill-rule="evenodd" clip-rule="evenodd" d="M150.723 21.3105C150.807 20.8435 150.893 20.3766 150.979 19.9095C151.176 18.8358 151.373 17.7616 151.558 16.6859C151.614 16.3546 151.739 16.1745 152.093 16.0652C154.827 15.2322 157.596 14.4443 160.405 13.7143C160.776 13.6178 161.005 13.666 161.287 13.9619C162.613 15.3506 163.92 16.7445 165.225 18.1366L165.226 18.1379L165.228 18.1392V18.1401L165.23 18.1414L165.626 18.5641C166.256 19.2362 166.428 19.9341 166.22 20.7542C165.772 22.5296 165.338 24.309 164.905 26.0877C164.79 26.5612 164.675 27.0346 164.559 27.5078C164.499 27.7544 164.448 28.0034 164.397 28.2529C164.347 28.4979 164.297 28.7434 164.238 28.9872C164.075 29.6529 163.67 30.0517 162.984 30.1675C160.639 30.5663 158.327 31.039 156.036 31.5279C155.867 31.5633 155.611 31.4796 155.474 31.3574C153.709 29.7623 151.923 28.1736 150.075 26.6395C149.828 26.4369 149.813 26.2504 149.864 25.9834C150.071 24.8897 150.27 23.7944 150.469 22.6997L150.473 22.6776C150.556 22.2217 150.639 21.766 150.723 21.3105ZM158.625 26.4754V26.4743C158.772 26.1625 158.908 25.8747 158.999 25.5718C159.267 24.6847 159.517 23.7915 159.766 22.8985L159.768 22.8944C159.883 22.4809 159.999 22.0675 160.116 21.6547C160.556 20.1367 159.356 18.1942 157.798 17.9401C157.792 17.9482 157.784 17.9559 157.777 17.9636C157.76 17.9806 157.743 17.9974 157.739 18.0173C157.249 20.2718 156.761 22.5262 156.286 24.7839C156.262 24.8964 156.333 25.0862 156.425 25.1698C156.812 25.5192 157.202 25.8613 157.613 26.2215L157.616 26.2244C157.873 26.4501 158.139 26.6829 158.416 26.929C158.486 26.7706 158.556 26.6213 158.624 26.477L158.625 26.4754Z" fill="currentColor"/>
<path d="M137.778 1.60267C136.518 2.2105 135.267 2.83441 133.998 3.48726C134.91 4.71579 135.151 6.03758 135.059 7.41404C135.028 7.87247 134.973 8.32722 134.918 8.78208L134.917 8.78431C134.883 9.06583 134.849 9.34737 134.821 9.62987L134.703 10.7811C134.385 13.874 134.068 16.9671 133.769 20.0627L133.753 20.2272C133.599 21.8572 133.446 23.4783 132.491 24.9157C133.609 25.7615 134.678 26.5913 135.742 27.4371C136.922 26.7424 138.096 26.0767 139.157 25.4882C139.129 25.2097 139.092 24.9433 139.056 24.6854C138.983 24.154 138.915 23.6588 138.937 23.1694C138.996 21.8952 139.142 20.6295 139.288 19.3644L139.314 19.1365C139.478 17.7118 140.464 16.6827 141.923 16.4833C142.179 16.4479 142.545 16.5958 142.75 16.7792C143.213 17.1908 143.192 17.7568 143.106 18.3036C142.984 19.0681 142.86 19.8321 142.736 20.596L142.735 20.5984V20.6013L142.734 20.6046V20.6083L142.733 20.6107L142.732 20.6218L142.731 20.6262C142.567 21.6323 142.404 22.6383 142.244 23.6454C141.971 25.3885 142.402 26.9 143.742 28.1092C144.2 28.5241 144.669 28.6913 145.276 28.3923C146.247 27.9126 147.244 27.4832 148.245 27.052C148.432 26.9715 148.619 26.8909 148.806 26.81C148.859 26.7874 148.908 26.7531 148.96 26.717C148.99 26.6965 149.02 26.6754 149.053 26.6556C148.925 26.4208 148.812 26.2118 148.699 25.9995C148.09 24.845 147.822 23.6647 148.105 22.3654C148.373 21.1247 148.615 19.8786 148.857 18.6322L148.858 18.6309V18.6296C149.036 17.7122 149.214 16.7946 149.403 15.8787C149.487 15.4831 149.43 15.1711 149.139 14.8495C148.888 14.5735 148.653 14.283 148.419 13.9923C148.288 13.8292 148.156 13.6659 148.021 13.5052C147.21 12.5308 146.387 11.566 145.546 10.5979C144.136 11.2815 142.784 11.9703 141.439 12.6549L141.438 12.6554L140.976 12.891C140.826 12.9674 140.648 12.9905 140.47 13.0135C140.386 13.0244 140.302 13.0353 140.221 13.0518C140.21 12.9763 140.193 12.9001 140.177 12.8241L140.176 12.8229C140.142 12.6663 140.108 12.5093 140.126 12.3603C140.441 9.72957 140.759 7.09887 141.103 4.47137C141.261 3.28144 140.845 2.27482 139.965 1.35825C139.555 0.933734 139.201 0.821174 138.699 1.15564C138.511 1.28043 138.295 1.37392 138.079 1.46757C137.978 1.51149 137.877 1.55544 137.778 1.60267Z" fill="currentColor"/>
<path d="M114.007 21.1755C114.753 19.9019 115.894 19.3616 117.193 19.0722C119.457 18.5641 121.615 18.8889 123.555 20.1946C123.833 20.3813 124.117 20.5576 124.421 20.7469C124.626 20.8739 124.84 21.0071 125.068 21.153C125.051 21.0416 125.037 20.9338 125.024 20.8292C124.964 20.3566 124.911 19.9475 124.634 19.5578C122.78 16.956 120.334 14.8785 117.864 12.8074C117.233 12.2795 116.625 11.7266 116.015 11.1722C115.867 11.0378 115.719 10.9027 115.57 10.7684C114.599 9.8904 114.185 8.74229 113.897 7.54593C113.862 7.40442 114.058 7.15679 114.215 7.0378C116.922 5.02456 119.719 3.08208 122.59 1.20713C122.71 1.12841 122.83 1.04915 122.95 0.96985C123.414 0.66378 123.88 0.35659 124.364 0.0783034C124.509 -0.00531357 124.8 -0.0310426 124.94 0.0461424C127.32 1.36471 129.644 2.74761 131.927 4.1691C131.957 4.18912 131.984 4.2153 132.009 4.24018C132.021 4.25126 132.032 4.2621 132.043 4.27201C131.505 5.71922 130.271 6.46213 128.465 6.43318C126.86 6.40745 125.335 5.97972 123.811 5.53913C123.484 5.44264 123.276 5.48767 123.032 5.68063C122.716 5.93053 122.391 6.17172 122.073 6.40808C121.879 6.55195 121.687 6.69403 121.502 6.83519C121.977 7.80321 122.676 8.33386 123.433 8.80018C124.937 9.7232 126.343 10.7491 127.555 11.9937C129.407 13.8944 130.661 16.1295 131.57 18.5383C131.582 18.5705 131.591 18.6026 131.6 18.6348C132.09 20.2235 132.046 20.3039 130.658 21.1594C128.126 22.732 125.662 24.3658 123.261 26.051C123.199 26.0943 123.136 26.1375 123.068 26.1837L123.066 26.1852L123.065 26.186L123.061 26.1886C122.985 26.2405 122.903 26.2962 122.812 26.3597C120.515 23.6776 117.701 21.6933 114.007 21.1755Z" fill="currentColor"/>
<path d="M96.7771 8.54288C95.1456 9.37908 93.5468 10.2635 91.8856 11.2058C93.003 12.0066 93.6924 12.9778 93.8499 14.187C93.969 15.0919 94.1093 15.9945 94.2496 16.8972C94.6838 19.6903 95.1181 22.4843 94.9227 25.3499C94.9138 25.4978 95.0446 25.7358 95.1723 25.7969L95.3841 25.8992C96.1929 26.2901 97.0011 26.6808 97.832 27.0061C98.1233 27.1219 98.6255 27.1187 98.8395 26.9354C99.4723 26.3953 100.085 25.8291 100.709 25.2533C101.11 24.8827 101.515 24.5082 101.933 24.1342C100.765 23.4814 100.447 22.4297 100.343 21.2559C100.283 20.5807 100.216 19.9054 100.149 19.2302V19.2282C100.089 18.6273 100.029 18.0265 99.9747 17.4256C99.9063 16.6666 100.153 16.0266 100.819 15.5635C100.886 15.5171 100.953 15.471 101.02 15.425C101.284 15.2448 101.547 15.0648 101.793 14.8624C102.037 14.6598 102.242 14.6791 102.504 14.8077C103.389 15.2387 103.57 16.033 103.639 16.8821C103.77 18.5418 103.893 20.2036 104.017 21.8658V21.867L104.108 23.0922C104.227 24.6649 105.021 25.7648 106.364 26.4691C106.509 26.5463 106.786 26.527 106.926 26.4337C107.362 26.1444 107.79 25.8391 108.218 25.5335C108.427 25.3839 108.637 25.2341 108.848 25.0862C109.487 24.6392 110.126 24.1986 110.804 23.7419C109.814 22.8543 109.535 21.7351 109.496 20.513C109.467 19.5953 109.438 18.6777 109.408 17.76C109.348 15.9248 109.289 14.0895 109.238 12.2542C109.229 11.9422 109.131 11.73 108.875 11.5306C108.49 11.228 108.103 10.9257 107.716 10.6231L107.713 10.6202L107.711 10.6191C106.924 10.0034 106.134 9.38588 105.35 8.76157C105.006 8.48821 104.771 8.50107 104.423 8.74549C103.887 9.12078 103.351 9.49468 102.816 9.86818L102.807 9.87418L102.804 9.87638L102.794 9.88388C102.176 10.3149 101.559 10.7454 100.943 11.1768C100.766 11.3007 100.573 11.4019 100.372 11.5067C100.271 11.5597 100.168 11.6138 100.064 11.6721C100.013 11.5864 99.9669 11.5069 99.9232 11.432C99.8309 11.2736 99.7503 11.1353 99.6656 11C99.5609 10.8312 99.4573 10.6614 99.3537 10.4915C99.0424 9.98148 98.7303 9.46998 98.3848 8.98026C98.0133 8.45605 97.309 8.26952 96.7771 8.54288Z" fill="currentColor"/>
<path fill-rule="evenodd" clip-rule="evenodd" d="M84.7624 9.62988C87.4548 11.5049 90.0372 13.412 92.6315 15.4413C92.117 15.782 91.6236 16.1164 91.1378 16.4458L91.1331 16.449C90.7676 16.6968 90.4062 16.9418 90.0432 17.1844C88.1591 18.4451 86.2958 19.7283 84.4771 21.0533C84.2695 21.2048 84.0819 21.3861 83.8959 21.5659C83.845 21.6151 83.7942 21.6642 83.7431 21.7126C83.336 22.1017 83.3301 22.24 83.7669 22.5841C83.9719 22.7449 84.2245 22.8671 84.4771 22.9443C84.7802 23.038 85.0835 23.1303 85.3866 23.2226L85.3877 23.2229C86.2074 23.4724 87.0255 23.7214 87.8322 23.996C88.1442 24.1021 88.379 24.086 88.6643 23.8898C89.5481 23.287 90.4619 22.7195 91.4003 22.1366L91.529 22.0567C92.0907 22.7803 92.6226 23.4814 93.1813 24.2211C92.4819 24.7087 91.8171 25.1838 91.1544 25.6574L90.8871 25.8484C89.5707 26.7907 88.2661 27.7394 86.9942 28.7235C86.7535 28.91 86.5544 28.9422 86.278 28.8329C84.6644 28.1832 83.024 27.5722 81.3628 26.9933C81.0507 26.8839 80.7268 26.7939 80.3999 26.7553C78.813 26.5752 78.1117 25.9352 77.8116 24.3304C77.4491 22.3908 77.0759 20.4541 76.7022 18.5147L76.6466 18.2264C76.5982 17.9765 76.5443 17.7281 76.4905 17.4798L76.4902 17.4787C76.4055 17.0883 76.3209 16.698 76.2574 16.3032C76.1682 15.75 76.4357 15.2869 76.8992 14.9525C79.446 13.1193 82.0611 11.3569 84.7624 9.62988ZM82.3643 14.9235C82.5455 16.0266 82.7179 17.075 82.9021 18.191C83.6896 17.5767 84.4266 17.0075 85.2379 16.3965C84.8081 16.223 84.4408 15.9739 84.0786 15.7282C83.5544 15.3726 83.0409 15.0243 82.3643 14.9235Z" fill="currentColor"/>
<path fill-rule="evenodd" clip-rule="evenodd" d="M77.345 29.6573C77.815 29.2623 78.2864 28.8662 78.7655 28.4759C76.8339 26.6813 76.2841 25.842 75.8324 23.7162C75.5718 22.5053 75.3172 21.2926 75.0626 20.0798C74.5565 17.6689 74.0502 15.2574 73.4966 12.8588C73.0984 11.1254 72.5368 9.43381 71.9721 7.75178C71.6571 6.81591 71.0717 6.0312 70.0197 5.63884C69.5799 5.47482 69.2352 5.50055 68.8726 5.86075C68.662 6.07064 68.4235 6.25836 68.185 6.44614C68.0837 6.52591 67.9823 6.60577 67.883 6.68727C66.8935 7.50414 65.9158 8.33066 64.9173 9.18931C66.7716 10.9163 67.3214 13.1579 67.6572 15.5764C67.4223 15.5357 67.1959 15.5026 66.9763 15.4704C66.5705 15.4111 66.1879 15.3551 65.8177 15.2612C64.9916 15.0522 64.3526 15.2837 63.8058 15.9559C62.6885 17.3291 61.577 18.7024 60.4864 20.0853C60.0852 20.5966 60.002 21.124 60.1774 21.6933L60.2774 22.0153C61.1741 24.9017 62.0702 27.7861 62.944 30.6789C63.155 31.3832 63.5651 31.7627 64.2932 31.872C65.6572 32.0746 67.0064 32.3158 68.3377 32.6181C69.146 32.8014 69.7463 32.5763 70.2574 31.8945C70.6243 31.406 71.0195 30.9391 71.4181 30.4682L71.4193 30.4668C71.553 30.3089 71.6871 30.1505 71.8206 29.9906C71.9849 30.1274 72.1433 30.2634 72.299 30.3971C72.5937 30.6502 72.8793 30.8955 73.1786 31.1227C74.0761 31.8045 74.7002 31.8238 75.6006 31.1002C76.188 30.6296 76.7655 30.1443 77.345 29.6573ZM65.4517 19.7318C65.4547 19.693 65.4586 19.6419 65.4611 19.5707C65.6921 19.6091 65.9201 19.6446 66.1452 19.6795C66.786 19.7791 67.4037 19.875 68.0019 20.0274C68.6973 20.2042 69.1341 20.7317 69.3005 21.391C69.6779 22.8826 70.0303 24.3832 70.3827 25.8834C70.502 26.3915 70.6216 26.9005 70.7418 27.4082C68.8875 27.9259 67.4403 27.3278 66.9172 25.6426C66.505 24.3065 66.1842 22.937 65.8634 21.5677C65.7286 20.9924 65.5937 20.4168 65.4522 19.8441C65.4452 19.8175 65.4475 19.7875 65.4517 19.7318Z" fill="currentColor"/>
<path fill-rule="evenodd" clip-rule="evenodd" d="M60.4359 26.9611C60.5341 27.2987 60.632 27.6364 60.7299 27.9742C61.0527 29.0878 61.3756 30.202 61.7108 31.3124C61.797 31.6019 61.7761 31.8045 61.5444 32.036C59.9277 33.6666 58.3616 35.3357 56.8342 37.0273C56.3557 37.5579 55.7941 37.8185 55.0957 37.7734C53.2384 37.6576 51.3632 37.5965 49.4792 37.5547C48.9086 37.5419 48.5044 37.2717 48.2934 36.7379C47.521 34.7642 46.7503 32.7886 45.98 30.8141L45.9796 30.813L45.2861 29.0355C45.0572 28.4501 45.1256 27.8841 45.5297 27.3117C47.0037 25.2245 48.5074 23.1469 50.0884 21.1047C50.2013 20.9568 50.4836 20.8249 50.6619 20.8346C53.1195 20.9825 55.5534 21.2141 57.9634 21.4874C58.6648 21.5678 58.9976 22.002 59.1729 22.6098C59.4849 23.6975 59.8019 24.7852 60.1189 25.873C60.2247 26.2357 60.3304 26.5984 60.4359 26.9611ZM56.0288 32.2611C56.0049 32.1103 55.9874 31.9696 55.9708 31.8367C55.9379 31.5728 55.9088 31.3397 55.8416 31.1195C55.7 30.6458 55.5455 30.1757 55.391 29.7054C55.1532 28.9818 54.9152 28.2575 54.7243 27.5207C54.2726 25.7744 53.6574 25.2502 51.7822 25.2856C51.6859 25.2872 51.5896 25.2896 51.4932 25.292H51.4918C51.3954 25.2944 51.2991 25.2968 51.2028 25.2984C50.8283 25.3017 50.7243 25.5107 50.8135 25.813C51.387 27.7425 51.9606 29.6724 52.5727 31.5858C52.647 31.8141 52.9174 32.0585 53.1552 32.1196C53.702 32.2644 54.2755 32.3383 54.8461 32.3769C55.098 32.3922 55.3567 32.3542 55.6297 32.3141C55.7593 32.2951 55.8921 32.2756 56.0288 32.2611Z" fill="currentColor"/>
<path fill-rule="evenodd" clip-rule="evenodd" d="M45.8545 34.0111C45.7236 33.6678 45.5927 33.3246 45.4614 32.9815C45.3021 32.5652 45.1398 32.1502 44.9774 31.7352C44.5856 30.7336 44.1936 29.7316 43.8448 28.7106C43.5773 27.9388 43.0722 27.6333 42.252 27.5883C41.7386 27.5597 41.2242 27.5327 40.7094 27.5056L40.7062 27.5054C39.3657 27.4349 38.021 27.3642 36.68 27.2666C35.6428 27.1927 34.891 27.5593 34.2105 28.3955C33.0337 29.8427 31.845 31.277 30.6533 32.705C29.9906 33.4993 29.8212 34.2487 30.2403 35.0848C30.6689 35.9416 31.074 36.8123 31.4791 37.6831C31.5515 37.8386 31.6239 37.9943 31.6964 38.1497C32.5136 39.8992 33.3249 41.652 34.1362 43.4047C34.3739 43.9225 34.7632 44.1926 35.3516 44.154C37.4318 44.0222 39.5031 43.9386 41.5566 43.8968C42.1093 43.8839 42.5521 43.6556 42.9147 43.2021C44.2638 41.5265 45.6457 39.8703 47.078 38.2462C47.3009 37.9985 47.3217 37.8088 47.2088 37.5226C46.7491 36.3559 46.3018 35.1834 45.8545 34.0111ZM36.2366 34.2692C35.9884 33.7011 35.7383 33.1287 35.4854 32.5506C36.573 32.5377 37.5477 32.5281 38.5106 32.5506C38.6354 32.5538 38.8018 32.6664 38.8493 32.7757C39.5467 34.4168 40.2317 36.0645 40.9163 37.7115L41.3218 38.6868C41.3289 38.702 41.3255 38.7218 41.3197 38.7555C41.3157 38.7786 41.3106 38.8084 41.307 38.8476C40.8426 38.8667 40.3769 38.8906 39.9103 38.9145L39.9092 38.9146L39.9079 38.9147C39.4347 38.9389 38.9608 38.9632 38.4868 38.9827C38.3887 38.9859 38.252 38.8669 38.2074 38.764C37.5533 37.2827 36.9039 35.7964 36.2409 34.279L36.2384 34.2733L36.2366 34.2692Z" fill="currentColor"/>
<path d="M0 43.498C1.00741 41.3368 2.05346 39.1821 3.15597 37.0048C4.98655 36.9437 6.30897 37.7123 7.16185 39.0856C8.27649 40.8783 9.36221 42.6914 10.4483 44.5052C11.137 45.6554 11.8264 46.8066 12.5228 47.9522C12.5777 48.0425 12.6323 48.133 12.687 48.2236C13.1097 48.9237 13.5346 49.6273 14.0503 50.2452C14.7071 51.0299 15.6818 51.165 16.7249 50.972C16.8675 50.9463 17.0488 50.763 17.1231 50.6118C17.655 49.5634 17.5421 48.6018 17.0191 47.7238C15.3905 44.9999 13.7502 42.2855 12.1068 39.5712C11.3817 38.3716 10.3624 37.4936 8.9538 36.9726C9.34607 36.2104 9.73833 35.4611 10.1365 34.7118C10.4836 34.0577 10.8374 33.4057 11.1914 32.7534C11.4588 32.2607 11.7262 31.7679 11.9909 31.2738C12.1454 30.9844 12.3 30.8847 12.609 30.8783C14.0622 30.8493 15.1231 31.4861 15.8274 32.5152C16.6803 33.7598 17.4143 35.0977 18.1245 36.442C18.9739 38.0526 19.7998 39.6788 20.6255 41.3046C21.0479 42.1361 21.4703 42.9678 21.8957 43.7971C22.4543 44.8873 23.2983 45.5112 24.6296 45.3665C24.7485 45.3536 24.8703 45.36 24.9862 45.3793C24.9991 45.3813 25.012 45.3833 25.025 45.3853C25.0384 45.3874 25.0518 45.3896 25.0653 45.3917C25.3485 45.4373 25.6558 45.4867 25.7916 45.1253C25.9045 44.823 25.9758 44.421 25.8748 44.154C25.6675 43.611 25.3985 43.0962 25.1301 42.5826C25.06 42.4484 24.9898 42.3139 24.9209 42.1794C24.4503 41.2623 23.9765 40.3469 23.5026 39.4314C22.5342 37.5604 21.5655 35.6889 20.6238 33.8016C20.0413 32.631 19.1379 31.7562 18.2077 30.8976C17.8957 30.6081 17.8601 30.3637 18.1156 29.9167C18.4985 29.2482 18.8761 28.5769 19.2542 27.9047C19.7711 26.9858 20.2892 26.0647 20.8229 25.1473C22.7961 25.1055 24.2879 25.7873 25.0724 27.3953C26.0644 29.4249 27.0225 31.4728 27.9808 33.5211L27.9816 33.5228C28.4124 34.4437 28.8434 35.365 29.2774 36.2844C29.5162 36.7915 29.7553 37.2983 29.9944 37.8051C30.4724 38.8184 30.9505 39.8318 31.426 40.848C31.5954 41.2082 31.7647 41.5716 31.9074 41.9478C32.0827 42.4174 32.1213 42.9062 31.8628 43.4047C30.4275 46.1801 29.0694 48.9717 27.7886 51.7793C27.7743 51.8102 27.7529 51.8396 27.7236 51.8801C27.7103 51.8984 27.6953 51.9193 27.6786 51.9433C25.5063 51.5799 23.2983 51.2647 21.0309 50.9913C20.2701 53.1075 19.5599 55.1979 18.8704 57.3398C17.6936 57.314 16.5287 57.3108 15.3608 57.3076C15.0693 57.3069 14.7777 57.3044 14.4858 57.3019H14.4844C13.5178 57.2937 12.5477 57.2855 11.5689 57.3398C10.7279 57.388 10.1692 57.0375 9.75022 56.3943C9.06231 55.3372 8.37702 54.2783 7.69167 53.2194C6.58584 51.5107 5.47978 49.8017 4.36249 48.1001C4.16574 47.8003 3.97832 47.4921 3.79082 47.1837C3.17972 46.1785 2.56764 45.1717 1.6285 44.4531C1.29885 44.1986 0.915777 44.01 0.53276 43.8213C0.373714 43.743 0.214634 43.6646 0.0594347 43.5816C0.0356609 43.5526 0.0178303 43.5269 0 43.498Z" fill="currentColor"/>
<path fill-rule="evenodd" clip-rule="evenodd" d="M62.3567 8.1507C62.4781 8.01901 62.5996 7.88717 62.7211 7.75498C61.0718 7.08926 59.4671 6.46535 57.8386 5.88647C57.7286 5.84787 57.479 5.95079 57.3661 6.0537C56.0763 7.24042 54.8194 8.45608 53.5802 9.68142C53.2474 10.0094 53.0899 10.3599 53.2206 10.7845C53.4387 11.486 53.6524 12.1891 53.866 12.8921C54.1793 13.9227 54.4926 14.9537 54.8194 15.9784C54.8699 16.1392 55.0986 16.3 55.2799 16.3289C55.5306 16.3691 55.7812 16.409 56.0317 16.4489C57.4263 16.6711 58.8172 16.8927 60.1952 17.149C60.4627 17.2005 60.6112 17.1361 60.7776 16.9174C61.5681 15.8819 62.3884 14.8624 63.2145 13.8461C63.3329 13.7 63.4502 13.5538 63.5704 13.4043C63.6644 13.2873 63.7602 13.1682 63.8594 13.0453C63.709 12.9778 63.5638 12.9133 63.4226 12.8506C63.0867 12.7014 62.773 12.5621 62.4655 12.415C62.2189 12.2992 62.0525 12.3378 61.8563 12.5597C61.47 13.0003 61.06 13.4248 60.6469 13.8461C60.5459 13.949 60.3468 14.0809 60.2517 14.0552C59.8053 13.9322 59.3659 13.7943 58.9211 13.6546C58.7144 13.5897 58.5064 13.5245 58.2962 13.4602C59.3123 11.4517 60.8235 9.81322 62.3567 8.1507ZM57.8726 10.8126L57.8717 10.8137C57.7742 10.9404 57.6721 11.073 57.5652 11.2154C57.1402 10.4789 56.9026 9.85822 57.1403 9.03496C57.2453 9.08378 57.3486 9.13082 57.4502 9.17702C57.777 9.32562 58.0864 9.46632 58.3764 9.63312C58.4656 9.68462 58.5191 9.91942 58.4626 10.0062C58.288 10.273 58.0918 10.5279 57.8726 10.8126Z" fill="currentColor"/>
<path d="M48.4599 19.9405C48.2677 20.2126 48.073 20.4916 47.8761 20.7739C47.5889 21.1855 47.297 21.6041 47.0008 22.0181C46.9265 22.121 46.7333 22.2368 46.6204 22.2239C46.1205 22.178 45.6217 22.123 45.1139 22.0671C44.7676 22.0289 44.4165 21.9902 44.0588 21.9537C44.2463 20.5822 43.795 19.426 43.3453 18.2738C43.2319 17.9834 43.1186 17.6932 43.0157 17.3998C42.426 15.7081 41.816 14.0244 41.2061 12.3408C41.0415 11.8864 40.8769 11.432 40.7126 10.9774C40.4214 10.167 39.8865 9.54306 38.9979 9.10887C39.8241 7.99612 40.6591 6.89624 41.515 5.78992C42.6145 5.88962 43.3307 6.35916 43.6398 7.2886C44.1777 8.8934 44.7304 10.4918 45.2891 12.087C45.3208 12.1791 45.3934 12.2556 45.4665 12.3325C45.503 12.371 45.5397 12.4096 45.5714 12.4504C45.6101 12.4165 45.651 12.3841 45.692 12.3518C45.7832 12.2798 45.8743 12.2079 45.9399 12.1191L45.9405 12.1182C46.6417 11.1602 47.3428 10.2021 48.0914 9.19896C49.3069 9.59126 50.5163 9.99006 51.705 10.4211C51.8269 10.4661 51.9249 10.6237 51.9606 10.7555C52.0497 11.0627 52.1402 11.3693 52.2307 11.6759C52.5297 12.6885 52.8287 13.7012 53.075 14.7305C53.3365 15.824 54.0051 16.5476 55.0868 17.0461C54.8513 17.3304 54.6233 17.6127 54.398 17.8916C53.9328 18.4675 53.4793 19.029 52.9948 19.5642C52.8313 19.7475 52.3796 19.8119 52.1032 19.7701C51.0304 19.6157 50.3024 19.0272 49.9725 18.0495C49.739 17.3549 49.5215 16.6535 49.304 15.952C49.159 15.4843 49.0138 15.0161 48.8641 14.5504C48.7987 14.3446 48.7184 14.1324 48.5907 13.9651C48.2816 13.5663 47.8358 13.5792 47.4168 13.9651C46.7423 14.5858 46.4451 15.3094 46.6888 16.0845C46.9622 16.9625 47.2801 17.8276 47.6427 18.667C47.7664 18.9606 47.9544 19.2223 48.1572 19.5047C48.2564 19.6429 48.3593 19.7862 48.4599 19.9405Z" fill="currentColor"/>
<path d="M30.3092 18.0676C30.859 18.094 31.4156 18.1207 31.9817 18.1557C31.8182 16.3805 32.8969 15.0201 34.1451 13.5761C34.2492 13.7684 34.3543 13.9509 34.4564 14.1282C34.6805 14.5175 34.8903 14.8821 35.0455 15.2709C35.522 16.4634 35.9899 17.6596 36.4578 18.8557C37.055 20.3822 37.652 21.9085 38.2668 23.4268C38.4125 23.787 38.7096 24.1729 39.0573 24.3176C39.4333 24.4743 39.8555 24.5426 40.3167 24.6173C40.5371 24.6529 40.7664 24.6901 41.0038 24.7389C41.2367 24.1638 41.4733 23.5965 41.7085 23.0323C41.9533 22.4449 42.1967 21.8609 42.4332 21.2753C42.6115 20.8379 42.564 20.4327 42.2014 20.1079C42.0231 19.9471 41.9102 19.7026 41.824 19.4711C41.4475 18.4517 41.0754 17.4302 40.7033 16.4089C40.2679 15.2135 39.8325 14.0182 39.3902 12.8268C39.33 12.6655 39.2721 12.5029 39.2142 12.3401C38.8748 11.3861 38.5345 10.4294 37.7171 9.74256C37.4997 9.56196 37.6328 9.40936 37.7743 9.24706C37.7992 9.21856 37.8243 9.18976 37.8478 9.16046C38.2034 8.71098 38.5669 8.26608 38.9305 7.82128C39.5787 7.02801 40.2268 6.23504 40.8285 5.41698C41.1461 4.98935 41.2685 4.44514 41.3849 3.92787C41.4024 3.84994 41.4198 3.77262 41.4377 3.6964C41.4763 3.52595 41.2534 3.21078 41.0692 3.18183C39.6967 2.97282 38.2983 2.83553 36.8173 2.69012L36.7483 2.68335C36.8285 4.22061 35.9697 5.41698 34.9177 6.59404C33.8182 7.82579 32.7692 9.08969 31.7499 10.3697C30.5107 11.9263 29.313 13.5086 28.1511 15.1069C27.6875 15.7469 27.2952 16.4351 27.3517 17.1588C27.3755 17.4482 27.5508 17.8984 27.7559 17.9145C28.5969 17.9853 29.4446 18.026 30.3092 18.0676Z" fill="currentColor"/>
</svg>
