<svg viewBox="0 0 141 63" fill="none" xmlns="http://www.w3.org/2000/svg">
<path fill-rule="evenodd" clip-rule="evenodd" d="M66.8959 3.61363C66.8749 3.58503 66.8529 3.55623 66.8299 3.53143L66.5329 3.46713C66.4439 3.47353 66.3459 3.46393 66.2629 3.43173C66.0859 3.36503 65.9099 3.29473 65.7339 3.22433C65.4679 3.11823 65.2009 3.01193 64.9309 2.91723C64.8199 2.87923 64.7019 2.86753 64.5829 2.85583C64.5209 2.84973 64.4579 2.84353 64.3969 2.83353C64.3369 2.82393 64.2749 2.80783 64.2179 2.78213C63.6179 2.48623 63.0179 2.19033 62.4199 1.88803C62.3499 1.85233 62.2869 1.80563 62.2229 1.75863C62.1889 1.73373 62.1549 1.70883 62.1199 1.68543C62.1139 1.68123 62.1079 1.67673 62.1009 1.67203L62.0859 1.66073C62.0589 1.63963 62.0309 1.61833 62.0009 1.61153C61.8199 1.56893 61.6379 1.52943 61.4559 1.48983L61.4529 1.48923L61.4519 1.48893L61.4489 1.48823L61.4469 1.48793C61.1239 1.41743 60.7989 1.34693 60.4799 1.26093C60.3269 1.21913 60.1769 1.15883 60.0279 1.09853C59.8789 1.03823 59.7289 0.977927 59.5759 0.936127C59.2869 0.858927 58.9949 0.798927 58.7029 0.738827C58.5569 0.708827 58.4109 0.678826 58.2659 0.646626L57.7844 0.540527H57.303C57.2434 0.548127 57.1836 0.554328 57.1237 0.560528C56.9805 0.575328 56.8371 0.590126 56.6967 0.624126L56.6207 0.642529C56.4212 0.690529 56.2166 0.739826 56.04 0.839626C52.2956 2.98793 48.5423 5.11053 44.5929 6.79573C42.3582 7.75093 40.0462 8.43273 37.7223 9.07593C37.2358 9.21073 36.7405 9.30793 36.2455 9.40503C35.7486 9.50243 35.2522 9.59983 34.7654 9.73523C33.7848 10.0086 32.7865 10.1429 31.7883 10.2772L31.7873 10.2774C31.2009 10.3563 30.6141 10.4353 30.0315 10.5424C29.1925 10.6972 28.3357 10.7471 27.4805 10.7969C27.2876 10.8082 27.0947 10.8194 26.9022 10.8318C25.2589 10.9379 23.6125 11.0312 21.9662 11.0923C21.6918 11.102 21.4152 11.0596 21.1385 11.0171C20.9537 10.9888 20.7688 10.9605 20.5843 10.9476C20.2358 10.923 19.8873 10.9072 19.539 10.8914H19.538C19.1592 10.8742 18.7807 10.8571 18.4031 10.8286C17.7226 10.7776 17.0445 10.7067 16.3646 10.6356L16.0881 10.6067C15.8045 10.5768 15.5212 10.5425 15.238 10.5083C14.7589 10.4502 14.2799 10.3922 13.7999 10.3559L13.7586 10.3528C13.4287 10.3282 13.1116 10.3046 12.7836 10.2336C12.4608 10.1624 12.129 10.1486 11.7967 10.1349L11.7957 10.1348C11.6632 10.1293 11.5308 10.1238 11.3988 10.1147C11.2858 10.1071 11.1726 10.1032 11.0593 10.0993C10.8328 10.0914 10.6063 10.0836 10.3824 10.0471C10.2055 10.02 10.0311 9.96973 9.85614 9.91923C9.69904 9.87393 9.54124 9.82843 9.38104 9.79953C8.97284 9.72613 8.56354 9.65953 8.15434 9.59303C7.63114 9.50793 7.10774 9.42273 6.58754 9.32353L6.44434 9.29573C5.89214 9.18793 5.34124 9.08053 4.77784 9.13383C4.36404 9.17133 3.95594 9.22113 3.54524 9.27123L3.51184 9.27533C3.26224 9.30743 3.06314 9.44893 2.98884 9.70943C2.82244 10.3108 2.66784 10.9187 2.52524 11.5297C2.05274 13.5269 1.72284 15.5562 1.48814 17.6016C1.37734 18.5562 1.29294 19.5151 1.20854 20.4735C1.16614 20.955 1.12374 21.4368 1.07804 21.9175C1.04534 22.2606 1.00824 22.6034 0.97104 22.946C0.89994 23.6021 0.828738 24.2578 0.789738 24.9148C0.738038 25.7652 0.710938 26.6196 0.683938 27.4737L0.683739 27.477C0.668939 27.9461 0.654139 28.4153 0.635239 28.8834C0.628339 29.0467 0.61014 29.2094 0.59184 29.3719C0.57054 29.5614 0.54924 29.7511 0.54604 29.9415C0.53714 30.4335 0.54904 30.9288 0.58474 31.4209C0.61974 31.9204 0.654139 32.4202 0.688439 32.9199C0.811339 34.7077 0.93424 36.4961 1.08994 38.2807C1.28604 40.5126 1.59504 42.7284 2.27564 44.8639C2.34864 45.0932 2.38964 45.3342 2.43054 45.5749C2.45794 45.7358 2.48534 45.8966 2.52224 46.0538C2.60544 46.4076 2.69764 46.7549 2.81344 47.0958L2.95004 47.4965C3.34414 48.653 3.73844 49.8105 4.15674 50.9551C4.31124 51.3763 4.52224 51.7848 4.75704 52.1606C5.39474 53.1826 6.04494 54.1956 6.69554 55.2086L7.07194 55.7956C7.39884 56.3066 7.81494 56.7216 8.29924 57.0586L8.48324 57.1876L8.48464 57.1886C8.94874 57.5116 9.41164 57.8336 9.86534 58.1686C10.635 58.7376 11.4671 59.1716 12.3378 59.5286C12.5652 59.6216 12.7856 59.7316 13.0061 59.8406L13.0075 59.8416C13.1928 59.9336 13.3784 60.0256 13.5681 60.1076C13.6911 60.1616 13.8219 60.1926 13.9524 60.2246C14.0328 60.2436 14.114 60.2636 14.1922 60.2876C14.3472 60.3366 14.5017 60.3886 14.6564 60.4396C14.8782 60.5146 15.1003 60.5886 15.3244 60.6546C15.38 60.6726 15.4414 60.6696 15.503 60.6656C15.5501 60.6636 15.5974 60.6606 15.6424 60.6676C16.0937 60.7366 16.5445 60.8146 16.9954 60.8926C17.9661 61.0616 18.9377 61.2296 19.9157 61.3106C21.1932 61.4156 22.4794 61.4046 23.765 61.3926C23.9747 61.3906 24.1844 61.3896 24.3941 61.3876C25.8265 61.3786 27.2588 61.3266 28.6882 61.2756C28.8667 61.2676 29.0433 61.2336 29.2202 61.1986C29.3583 61.1716 29.4968 61.1446 29.6362 61.1306C30.0879 61.0826 30.5426 61.0506 30.9973 61.0306C31.3762 61.0146 31.7555 61.0016 32.135 60.9896H32.136H32.1383C32.7814 60.9686 33.4248 60.9476 34.0671 60.9056C34.2618 60.8926 34.4543 60.8386 34.6468 60.7846C34.8272 60.7346 35.0078 60.6846 35.1904 60.6676C35.7966 60.6126 36.4058 60.6036 37.012 60.6066C38.3642 60.6156 39.7163 60.6386 41.0684 60.6646C41.5528 60.6736 41.9599 60.4586 42.3195 60.1466L42.3584 60.1126L42.503 59.9876C42.9906 59.5666 43.4791 59.1446 43.8618 58.5966L43.9268 58.5036L43.9984 58.4026C44.2849 57.9966 44.57 57.5936 44.7623 57.1136C44.9935 56.5336 45.2514 55.9656 45.5095 55.3966C45.646 55.0966 45.7827 54.7956 45.9153 54.4926C46.0074 54.2866 46.0877 54.0686 46.1382 53.8426C46.2244 53.4576 46.4354 53.1616 46.7652 53.0456C47.0332 52.9516 47.2939 52.8326 47.5544 52.7146C48.0536 52.4866 48.5523 52.2596 49.101 52.2096C49.4875 52.1736 49.8717 52.1111 50.2563 52.0489C50.9687 51.9336 51.6819 51.8183 52.4115 51.8684C52.8491 51.8994 53.2882 51.9109 53.7269 51.9225C54.1998 51.935 54.6724 51.9475 55.1425 51.9842C55.8886 52.0422 56.6332 52.1276 57.3774 52.2136L57.3816 52.2146H57.3835C57.71 52.2526 58.0369 52.2896 58.3639 52.3246L58.4169 52.3316C58.4769 52.3396 58.5399 52.3486 58.6019 52.3506C59.5199 52.3976 60.4339 52.4966 61.3479 52.5956C61.8029 52.6446 62.2589 52.6936 62.7149 52.7366C63.5559 52.8136 64.3999 52.8946 65.2349 53.0226C66.9939 53.2906 68.6889 53.8476 70.3839 54.4046L70.4349 54.4216C71.3279 54.7156 72.2019 55.0706 73.0759 55.4246C73.2649 55.5016 73.4529 55.5776 73.6419 55.6536C74.6519 56.0626 75.6559 56.4836 76.6579 56.9176C77.3439 57.2176 78.0259 57.5256 78.7079 57.8336L78.7129 57.8356L78.7149 57.8366C79.0769 58.0006 79.4389 58.1636 79.8019 58.3266C80.1899 58.5006 80.5779 58.6736 80.9659 58.8466L80.9739 58.8496C81.8019 59.2186 82.6299 59.5886 83.4539 59.9666C85.2849 60.8086 87.1809 61.4196 89.1389 61.8026C89.6559 61.9046 90.1749 61.9976 90.6929 62.0906H90.6939C91.5719 62.2476 92.4499 62.4056 93.3199 62.6036C94.4109 62.8516 95.5099 62.9576 96.6069 62.9376C97.8159 62.9166 99.0249 62.8306 100.233 62.7436C100.676 62.7116 101.118 62.6806 101.561 62.6516C101.777 62.6376 101.994 62.6256 102.21 62.6136H102.213C102.89 62.5756 103.565 62.5376 104.235 62.4426C105.191 62.3086 106.143 62.1136 107.092 61.9186C107.234 61.8896 107.377 61.8606 107.519 61.8316C107.832 61.7676 108.143 61.6856 108.453 61.6046C108.732 61.5316 109.012 61.4586 109.293 61.3976C109.846 61.2786 110.403 61.1706 110.959 61.0626C111.243 61.0076 111.527 60.9526 111.81 60.8956C113.204 60.6156 114.506 60.0726 115.775 59.3906C116.46 59.0216 117.154 58.6706 117.847 58.3196L117.848 58.3186C118.696 57.8896 119.544 57.4596 120.378 56.9976C120.862 56.7296 121.31 56.3856 121.758 56.0416C121.965 55.8826 122.171 55.7246 122.381 55.5736C124.109 54.3346 125.608 52.8116 127.111 51.2848L127.332 51.0612C128.984 49.3824 130.604 47.6683 132.089 45.8158C132.53 45.2655 132.915 44.664 133.299 44.0623C133.434 43.8517 133.569 43.6411 133.706 43.4327C135.109 41.3037 136.238 39.0075 137.266 36.6469C137.373 36.4007 137.463 36.1441 137.552 35.8872L137.594 35.7685C137.612 35.716 137.631 35.6636 137.649 35.6114C137.653 35.6015 137.656 35.5912 137.66 35.5806C137.68 35.5221 137.703 35.4555 137.685 35.412C137.599 35.184 137.669 34.9832 137.738 34.7843C137.755 34.7364 137.772 34.6881 137.786 34.6401C138.218 33.2331 138.546 31.7982 138.874 30.3633C139.068 29.5154 139.262 28.6675 139.477 27.8253C139.79 26.602 139.923 25.3578 140.056 24.1123C140.08 23.891 140.103 23.6696 140.128 23.4483C140.227 22.5639 140.287 21.675 140.347 20.7867V20.7844C140.374 20.3878 140.401 19.9914 140.431 19.5955C140.435 19.5437 140.447 19.4935 140.458 19.4426C140.463 19.421 140.468 19.3988 140.473 19.3768V13.3435C140.47 13.3153 140.468 13.2872 140.465 13.2589L140.457 13.177C140.448 13.0906 140.439 13.0038 140.434 12.9158C140.405 12.3803 140.374 11.8446 140.343 11.3088V11.3066V11.3029C140.258 9.81993 140.172 8.33473 140.122 6.85043C140.107 6.40983 139.956 6.16863 139.7 5.89203C139.498 5.67333 139.287 5.53503 139.016 5.46103C138.85 5.41603 138.684 5.33563 138.532 5.24563C138.285 5.09763 138.027 5.06873 137.748 5.07193C136.239 5.08433 134.795 5.47243 133.351 5.86023C132.92 5.97603 132.489 6.09183 132.057 6.19753C131.252 6.39393 130.459 6.66203 129.671 6.92813L129.635 6.94043C129.281 7.06003 128.932 7.19323 128.584 7.32623C128.173 7.48293 127.763 7.63943 127.347 7.77343C126.214 8.13793 125.057 8.39143 123.9 8.64483L123.635 8.70283C122.27 9.00363 120.913 9.34763 119.555 9.69173C119.099 9.80743 118.642 9.92343 118.185 10.0375C117.565 10.1918 116.947 10.3502 116.329 10.5086C115.711 10.667 115.093 10.8254 114.473 10.9798C114.222 11.042 113.968 11.0935 113.713 11.1448C113.6 11.1678 113.486 11.1907 113.373 11.2145C113.36 11.2177 113.345 11.2206 113.331 11.2235L113.305 11.2287C113.24 11.2418 113.174 11.2551 113.115 11.2788C112.386 11.5757 111.624 11.6042 110.859 11.6327L110.693 11.639C110.124 11.6612 109.555 11.6916 108.987 11.7219C108.485 11.7487 107.983 11.7755 107.481 11.7966C107.084 11.8129 106.688 11.82 106.292 11.8272C105.984 11.8327 105.676 11.8382 105.368 11.8481C105.228 11.8527 105.088 11.8637 104.948 11.8748C104.793 11.8871 104.637 11.8994 104.482 11.9028C104.337 11.9058 104.193 11.9008 104.049 11.8958C103.891 11.8903 103.734 11.8849 103.576 11.8899C103.24 11.8996 102.907 11.9253 102.574 11.9542C102.475 11.962 102.377 11.9759 102.279 11.9898C102.132 12.0106 101.985 12.0314 101.837 12.0314C101.593 12.0307 101.348 12.0311 101.104 12.0314C100.195 12.0326 99.2869 12.0338 98.3809 11.9832C97.1599 11.9156 95.9349 11.8095 94.7259 11.6294C92.8669 11.3535 91.0139 11.0317 89.1619 10.7101C88.8769 10.6606 88.5919 10.611 88.3069 10.5617C88.1389 10.5326 87.9719 10.5037 87.8039 10.4748C86.6369 10.2738 85.4699 10.0727 84.3159 9.80273C83.2629 9.55523 82.2149 9.28323 81.1669 9.01123C80.2809 8.78133 79.3949 8.55133 78.5059 8.33623C78.1589 8.25263 77.8379 8.13363 77.5079 8.00173C76.9549 7.77983 76.3939 7.57883 75.8339 7.37783C75.0049 7.08083 74.1769 6.78393 73.3739 6.41943C72.6389 6.08503 71.8929 5.78173 71.1479 5.47873L71.1469 5.47833C70.3229 5.14333 69.4989 4.80833 68.6909 4.43193C68.3719 4.28503 68.0459 4.15683 67.7209 4.02863C67.4899 3.93803 67.2599 3.84743 67.0319 3.75013C66.9789 3.72663 66.9379 3.67043 66.8959 3.61363ZM45.5765 17.6691L45.5744 17.6705C44.8562 18.1748 44.1372 18.6796 43.419 19.1806C43.419 19.1871 43.419 19.1967 43.4131 19.2096C43.4376 19.2589 43.4626 19.3079 43.4877 19.3569C43.5475 19.4741 43.6074 19.5911 43.6597 19.7113C44.2659 21.1038 44.4948 22.58 44.4977 24.1044C44.4998 24.9556 44.4864 25.8053 44.473 26.6557V26.6604V26.6622L44.4729 26.6668C44.4668 27.0528 44.4608 27.4389 44.4561 27.8253V27.8313V27.8336C44.4383 29.3166 44.4204 30.7997 44.4056 32.2828C44.3967 33.2508 44.3878 34.2188 44.3818 35.1868L44.378 36.1946V36.1986C44.3728 37.5401 44.3676 38.8816 44.3699 40.2231C44.3729 40.5222 44.4086 40.8277 44.4621 41.1236C44.5334 41.5063 44.6552 41.873 44.9554 42.1302C45.1394 42.2892 45.3225 42.4491 45.5054 42.609C45.8778 42.9343 46.2499 43.2595 46.6285 43.5742C48.0442 44.7534 49.4639 45.9261 50.8843 47.0994L50.9159 47.1257L50.9172 47.1267L52.2391 48.2182C54.135 46.4944 56.0221 44.777 57.9121 43.0565L57.9298 43.0718C57.9525 43.0912 57.9734 43.1093 57.9923 43.1272C58.1699 43.2957 58.3469 43.4649 58.5249 43.6341L58.5259 43.6353L58.5269 43.6366C58.7039 43.8058 58.8809 43.975 59.0589 44.1435C59.8599 44.9074 60.6619 45.6714 61.4629 46.4354L61.4669 46.4386V46.4394C62.2709 47.2049 63.0739 47.9704 63.8759 48.736C63.9329 48.7907 63.9719 48.7939 64.0339 48.7456C65.1209 47.8978 66.2079 47.0508 67.2959 46.2037L67.3559 46.1567L67.3599 46.154C68.4659 45.2922 69.5729 44.4304 70.6789 43.5678C70.6959 43.5537 70.7139 43.5361 70.7359 43.5138L70.7619 43.4874C70.1019 43.3845 69.4659 43.2848 68.8179 43.1819C68.8329 43.1465 68.8419 43.1272 68.8509 43.1079C69.1359 42.571 69.4219 42.0336 69.7129 41.4999C70.1469 40.7088 70.7229 40.0591 71.4309 39.5478C71.9739 39.1554 72.5599 38.866 73.1779 38.6505C73.2609 38.6215 73.2969 38.583 73.2939 38.4833C73.2899 38.3659 73.2929 38.2468 73.2959 38.1285L73.2989 38.0427L73.2999 37.988V37.9834C73.3119 37.1906 73.3239 36.3978 73.3319 35.6049L73.3329 35.5894C73.3439 34.3307 73.3559 33.0751 73.3619 31.8164C73.3619 31.7585 73.3269 31.6814 73.2849 31.6395C73.0939 31.4432 72.9009 31.249 72.7079 31.0547C72.3609 30.7049 72.0129 30.3547 71.6769 29.9929C71.0229 29.2886 70.5059 28.475 70.1499 27.5488C69.7959 26.6302 69.5789 25.6692 69.3609 24.7076L69.3599 24.7044V24.7005C69.3309 24.5736 69.3019 24.4467 69.2729 24.3199C69.2639 24.2877 69.2939 24.2298 69.3209 24.2041C69.4339 24.1032 69.5509 24.0042 69.6679 23.9057L69.7749 23.8149C70.1699 23.4807 70.5649 23.1461 70.9599 22.8115L70.9619 22.81C71.7519 22.1406 72.5419 21.4713 73.3319 20.8047C73.3979 20.7501 73.4249 20.6922 73.4219 20.6021C73.4169 20.4863 73.4159 20.3706 73.4159 20.2548C73.4149 20.139 73.4139 20.0232 73.4099 19.9074C73.3709 18.7883 73.1129 17.7398 72.5539 16.7911C72.0639 15.9549 71.4069 15.3021 70.6489 14.7554C70.5749 14.6975 70.5239 14.6975 70.4469 14.7554L70.4409 14.7599L70.4379 14.7624C68.8059 16.0047 67.1749 17.2469 65.5379 18.4827C65.4399 18.5535 65.4189 18.621 65.4479 18.74C65.5259 19.0522 65.6029 19.3644 65.6789 19.6763L65.6799 19.6776C65.7769 20.0722 65.8739 20.4663 65.9719 20.8594C66.1559 21.6023 66.3249 22.3484 66.3459 23.1203C66.3639 23.8085 66.3669 24.4935 66.3669 25.1817C66.3669 26.3556 66.3639 27.5295 66.3579 28.7033C66.3549 29.5459 66.3489 30.3917 66.3399 31.2343C66.3359 31.7023 66.3299 32.171 66.3239 32.6397V32.647C66.3179 33.1133 66.3119 33.5797 66.3069 34.0451C66.2999 34.7055 66.2929 35.3652 66.2869 36.0248V36.0259L66.2859 36.0463V36.0474C66.2799 36.7003 66.2729 37.3536 66.2659 38.0073V38.0162C66.2629 38.3381 66.2599 38.6631 66.2539 38.985C66.2389 39.6989 65.8879 40.1267 65.2639 40.1813C65.1989 40.1878 65.1159 40.1556 65.0679 40.1106C64.7589 39.8211 64.4289 39.5638 64.0759 39.3387C63.3979 38.9078 62.9339 38.2839 62.7199 37.4574C62.5869 36.9331 62.5509 36.3961 62.5689 35.8525C62.5869 35.2987 62.6059 34.7444 62.6259 34.1898C62.6559 33.35 62.6849 32.5089 62.7089 31.6685C62.7349 30.6428 62.7469 29.6139 62.7589 28.5882V28.5869V28.5779C62.7679 27.888 62.7749 27.1989 62.7809 26.5097C62.7879 25.8208 62.7949 25.1318 62.8039 24.4421C62.8129 23.7152 62.8299 22.9884 62.8539 22.2616C62.9019 20.8883 62.7559 19.544 62.3939 18.2287C62.0459 16.968 61.3889 15.9421 60.3429 15.2346C60.2659 15.1831 60.2149 15.1799 60.1379 15.2346C58.6819 16.2692 57.2221 17.3019 55.763 18.3342L55.762 18.3349L54.5213 19.2128C54.4887 19.2385 54.456 19.2642 54.4173 19.2932C54.4471 19.3511 54.4738 19.3993 54.5035 19.4476C54.872 20.0683 55.1603 20.734 55.3742 21.4351C55.719 22.5639 55.8348 23.7313 55.8378 24.9148C55.8438 27.5391 55.8497 30.1634 55.8586 32.7877C55.8606 33.1329 55.8652 33.4781 55.8699 33.8233V33.8292C55.8722 33.9998 55.8745 34.1704 55.8765 34.341C55.8808 34.5939 55.8869 34.847 55.893 35.1002C55.9078 35.7164 55.9226 36.334 55.9121 36.9492C55.8883 38.2678 55.3475 39.2808 54.2896 39.9594C54.1588 40.043 54.0489 40.0816 53.9121 39.9755C53.8595 39.9342 53.8002 39.9026 53.741 39.871C53.7033 39.8509 53.6657 39.8308 53.6298 39.8083C52.7443 39.2551 52.1083 38.4833 51.8201 37.4027C51.6834 36.8913 51.6477 36.3703 51.6566 35.8397L51.657 35.821C51.6747 34.9301 51.6923 34.042 51.7012 33.1511C51.7111 32.2605 51.7157 31.3684 51.7203 30.4769V30.4756V30.4743C51.7227 30.0277 51.725 29.5804 51.7279 29.1342L51.7458 26.1337C51.7487 25.2268 51.7517 24.3231 51.7577 23.4161L51.7592 23.0222C51.7611 22.4974 51.763 21.9727 51.7725 21.4479C51.7903 20.6021 51.7755 19.7595 51.6358 18.9266C51.3743 17.3571 50.6908 16.0514 49.5705 15.0126C49.4991 14.9451 49.4516 14.9451 49.3714 14.9998C48.1084 15.8906 46.8424 16.7815 45.5765 17.6691ZM97.4259 42.3249C97.4769 42.2083 97.5269 42.0917 97.5789 41.9759C97.5789 41.9662 97.5789 41.9566 97.5909 41.9437L97.5669 41.9066C97.5519 41.8826 97.5369 41.8585 97.5229 41.834L97.5119 41.8155C97.5029 41.7995 97.4949 41.7833 97.4869 41.7668C97.1179 41.0014 96.9809 40.1781 96.9929 39.3226C96.9989 38.9322 97.0059 38.5412 97.0139 38.1501V38.1486V38.1472C97.0229 37.6565 97.0329 37.1657 97.0379 36.6759C97.0479 35.7924 97.0519 34.909 97.0569 34.0256C97.0589 33.584 97.0619 33.1424 97.0649 32.7008C97.0709 31.363 97.0789 30.0219 97.0879 28.684C97.0929 27.902 97.0969 27.1208 97.0999 26.3396V26.3277C97.1039 25.5514 97.1079 24.7752 97.1119 23.9983C97.1119 23.8231 97.1139 23.6488 97.1149 23.4745V23.4692C97.1169 23.2931 97.1179 23.1171 97.1179 22.9402V22.8083L97.1189 22.5662C97.1219 21.7867 97.1249 21.0052 97.0169 20.2291C96.8479 19.0166 96.4849 17.8878 95.8339 16.8747C95.4599 16.2894 95.0109 15.7781 94.4969 15.3182C93.0139 16.3602 91.5369 17.3989 90.0509 18.4442L90.0589 18.4502C90.0849 18.4695 90.1039 18.484 90.1229 18.4956C90.3379 18.6235 90.5529 18.7522 90.7679 18.8809L90.7719 18.8832L90.7769 18.8863C90.9189 18.9709 91.0599 19.0555 91.2009 19.1399C91.2749 19.1835 91.3479 19.2272 91.4209 19.2707C91.4809 19.3061 91.5159 19.3382 91.4869 19.4251C91.4249 19.6059 91.3659 19.7883 91.3079 19.9708V19.9727C91.2209 20.244 91.1339 20.5154 91.0349 20.7822C90.5739 22.014 89.8549 23.0013 88.7379 23.6123C88.7079 23.6252 88.6869 23.6927 88.6899 23.7345C88.6989 23.8293 88.7109 23.9241 88.7219 24.0189C88.7419 24.1813 88.7619 24.3439 88.7679 24.5064C88.7939 25.275 88.8119 26.0469 88.8209 26.8187C88.8249 27.1582 88.8189 27.4993 88.8129 27.8397V27.8417V27.8432C88.8109 27.9886 88.8079 28.1338 88.8059 28.2788C88.7909 29.4398 88.7789 30.5976 88.7679 31.7585C88.7679 31.8068 88.7849 31.8647 88.8119 31.9033C89.7329 33.1704 90.4759 34.5597 91.2009 35.9619C91.9619 37.4381 92.5029 38.9817 92.4819 40.7056C92.4789 40.802 92.4609 40.8664 92.3839 40.9275C91.7789 41.4195 91.1749 41.9124 90.5709 42.4052L90.5659 42.4095C89.9639 42.9009 89.3619 43.3924 88.7589 43.883C88.6929 43.9377 88.6609 43.9923 88.6689 44.0824C88.6819 44.2027 88.6929 44.3232 88.7029 44.4436V44.4457C88.7269 44.7204 88.7509 44.995 88.7999 45.2627C88.8749 45.6743 89.0229 46.057 89.3439 46.3304C89.8049 46.7251 90.2659 47.1197 90.7279 47.5144L92.1289 48.7135C92.1519 48.7328 92.1789 48.7521 92.2089 48.7714L92.2569 48.7218L92.3059 48.672C92.3419 48.6354 92.3779 48.5993 92.4129 48.5634L92.4749 48.5014L92.5329 48.4426C92.5559 48.4193 92.5779 48.396 92.6009 48.3726C92.8699 48.0991 93.1399 47.8272 93.4099 47.5552L93.4109 47.5542C94.0339 46.9276 94.6569 46.3007 95.2639 45.655C95.9619 44.9121 96.5679 44.0792 97.0469 43.1497C97.1849 42.8824 97.3059 42.6034 97.4259 42.3249ZM81.0859 48.7697L81.0379 48.722C80.9759 48.6606 80.9169 48.6015 80.8599 48.5398C79.6089 47.1537 78.2569 45.8962 76.7319 44.8671C74.9519 43.6643 73.0319 42.8635 70.9609 42.4904C70.8939 42.4788 70.8259 42.4676 70.7569 42.4564C70.6819 42.444 70.6049 42.4317 70.5249 42.4189L70.3099 42.3843C70.3589 42.3014 70.4069 42.2197 70.4529 42.1393C70.5579 41.9579 70.6599 41.7827 70.7709 41.6157C71.4069 40.6637 72.2799 40.0655 73.2909 39.6764C74.0989 39.3644 74.9369 39.1972 75.7869 39.1104C76.2209 39.0653 76.6579 39.03 77.0949 39.0171C78.1939 38.985 79.2339 39.2744 80.2389 39.7343C81.2289 40.1861 82.1559 40.7669 83.0849 41.3492L83.1149 41.368C83.1569 41.3937 83.2009 41.4194 83.2459 41.445C83.2489 41.4469 83.2539 41.4468 83.2629 41.4462C83.2709 41.4458 83.2809 41.4452 83.2969 41.4452L83.2609 41.2863C83.1929 40.9807 83.1259 40.6791 83.0529 40.3775C83.0379 40.3164 82.9959 40.2585 82.9549 40.2103C82.6979 39.8936 82.4419 39.5758 82.1859 39.2579C81.6109 38.5428 81.0349 37.8274 80.4469 37.1261C79.7389 36.2803 78.9399 35.5374 78.1439 34.7977C77.6469 34.3358 77.1479 33.8756 76.6489 33.4154C75.7769 32.6099 74.9039 31.8045 74.0399 30.9899C73.4419 30.4271 72.8689 29.8353 72.3069 29.2339C71.4899 28.356 70.9759 27.2818 70.6699 26.0854C70.6249 25.9063 70.5809 25.7266 70.5369 25.5468C70.4729 25.2877 70.4099 25.0283 70.3429 24.7701C70.3189 24.6768 70.3369 24.6254 70.4049 24.5707L70.4159 24.5616L70.4179 24.5598C71.7039 23.4732 72.9889 22.3866 74.2739 21.2968C75.0299 20.6568 75.7859 20.0169 76.5429 19.3768L76.5849 19.3406C78.3419 17.8538 80.0989 16.3665 81.8549 14.8776C81.9439 14.8036 82.0039 14.8004 82.0989 14.8583C84.8089 16.4824 87.5189 18.1033 90.2329 19.7209C90.3399 19.7852 90.3569 19.8367 90.3159 19.9557C90.1049 20.5893 89.8459 21.1939 89.4479 21.7149C88.8719 22.4706 88.1199 22.8951 87.2429 23.0881C86.4909 23.2521 85.7359 23.2521 84.9789 23.1814C83.6379 23.0559 82.3339 22.7311 81.0409 22.3581C80.9549 22.3323 80.8979 22.3484 80.8329 22.4127C80.2739 22.9434 79.7249 23.4805 79.2579 24.1108C79.2019 24.188 79.1959 24.2362 79.2429 24.3166C79.6349 24.9856 80.1699 25.5001 80.7769 25.9246C81.0899 26.1433 81.4079 26.3533 81.7249 26.5631C82.0189 26.7575 82.3139 26.9523 82.6039 27.1532C85.6089 29.2468 88.0219 31.9515 89.7839 35.3251C89.8579 35.4673 89.9329 35.6091 90.0079 35.751C90.3559 36.4109 90.7049 37.071 90.9779 37.7725C91.2819 38.5476 91.4869 39.3451 91.5219 40.1878C91.5249 40.2778 91.5219 40.3518 91.4419 40.4193C88.0519 43.1862 84.6619 45.9563 81.2719 48.7264L81.2519 48.7424C81.2229 48.7714 81.1899 48.796 81.1619 48.8163L81.1449 48.8292L81.1109 48.7952L81.0859 48.7697Z" fill="currentColor"/>
</svg>
