<svg viewBox="0 0 472 195" fill="none" xmlns="http://www.w3.org/2000/svg">
<path fill-rule="evenodd" clip-rule="evenodd" d="M223.44 10.3789C223.368 10.2899 223.297 10.2005 223.22 10.1235L222.22 9.92349C221.92 9.94349 221.59 9.91349 221.31 9.81349C220.716 9.60608 220.123 9.38754 219.529 9.16864C218.635 8.83874 217.738 8.50804 216.83 8.21349C216.456 8.0955 216.057 8.05915 215.657 8.02276C215.447 8.00363 215.237 7.9845 215.03 7.95349C214.83 7.92349 214.62 7.87349 214.43 7.79349C212.41 6.87349 210.39 5.95349 208.38 5.01349C208.145 4.90236 207.931 4.75704 207.716 4.61106C207.602 4.53373 207.488 4.45621 207.37 4.38348C207.332 4.36013 207.294 4.33337 207.256 4.30644C207.163 4.2411 207.069 4.17473 206.97 4.15349C206.348 4.01895 205.725 3.89367 205.103 3.76851C204.013 3.54946 202.926 3.33078 201.85 3.06349C201.335 2.93349 200.833 2.74599 200.33 2.55849C199.828 2.371 199.325 2.1835 198.81 2.0535C197.837 1.81349 196.854 1.62682 195.872 1.44014C195.381 1.34681 194.89 1.25348 194.4 1.15349L192.78 0.823486H191.16C190.96 0.847066 190.758 0.866303 190.557 0.88555C190.075 0.931602 189.593 0.977709 189.12 1.0835C189.035 1.10271 188.95 1.12168 188.864 1.1407C188.193 1.28997 187.504 1.44306 186.91 1.75349C174.31 8.43349 161.68 15.0335 148.39 20.2735C140.87 23.2435 133.09 25.3635 125.27 27.3635C123.633 27.7827 121.966 28.0849 120.3 28.3868C118.629 28.6899 116.958 28.9927 115.32 29.4135C112.019 30.264 108.658 30.6818 105.298 31.0997C103.325 31.3451 101.351 31.5905 99.39 31.9235C96.5668 32.4049 93.6837 32.5601 90.8058 32.715C90.1567 32.7499 89.5078 32.7848 88.86 32.8235C83.33 33.1535 77.79 33.4435 72.25 33.6335C71.3266 33.6635 70.396 33.5317 69.4647 33.3997C68.8428 33.3117 68.2206 33.2235 67.6 33.1835C66.426 33.1068 65.2519 33.0577 64.079 33.0086C62.8042 32.9553 61.5308 32.902 60.26 32.8135C57.9702 32.655 55.6881 32.4344 53.4001 32.2132C53.0902 32.1833 52.7802 32.1533 52.47 32.1235C51.5154 32.0306 50.5622 31.924 49.6093 31.8174C47.9969 31.6369 46.3854 31.4566 44.77 31.3435C44.7236 31.3403 44.6772 31.3371 44.6309 31.3339C43.5211 31.2576 42.454 31.1843 41.35 30.9635C40.264 30.742 39.1473 30.6992 38.0292 30.6563C37.5824 30.6392 37.1354 30.622 36.69 30.5935C36.31 30.5702 35.9289 30.5579 35.5478 30.5457C34.7856 30.5213 34.0233 30.4968 33.27 30.3835C32.6746 30.2992 32.0876 30.1427 31.4987 29.9857C30.9698 29.8448 30.4394 29.7034 29.9 29.6135C28.5265 29.3853 27.1491 29.1783 25.7721 28.9713C24.0112 28.7067 22.2509 28.4421 20.5 28.1335C20.3392 28.1048 20.1785 28.0759 20.0179 28.0469C18.1597 27.712 16.306 27.3778 14.41 27.5435C13.0172 27.6604 11.6434 27.8152 10.2609 27.971L10.15 27.9835C9.31001 28.0835 8.64001 28.5235 8.39001 29.3335C7.83001 31.2035 7.31 33.0935 6.83 34.9935C5.24 41.2035 4.13001 47.5135 3.34001 53.8735C2.96725 56.8422 2.68311 59.8242 2.39911 62.8048C2.25644 64.302 2.11381 65.7989 1.96 67.2935C1.85022 68.3605 1.72513 69.4262 1.60009 70.4917C1.36066 72.5317 1.12139 74.5705 0.990001 76.6135C0.815874 79.2577 0.724928 81.9143 0.634014 84.57C0.583958 86.0322 0.533912 87.4941 0.469997 88.9535C0.446908 89.4614 0.38544 89.9673 0.323991 90.4729C0.252369 91.0623 0.180774 91.6515 0.170009 92.2435C0.140009 93.7735 0.179999 95.3135 0.299999 96.8435C0.417975 98.3969 0.533564 99.9507 0.649166 101.505C1.0627 107.064 1.47639 112.625 2.00001 118.173C2.66001 125.113 3.7 132.003 5.99 138.643C6.23572 139.357 6.37368 140.106 6.51152 140.854C6.60368 141.355 6.69579 141.855 6.82 142.344C7.1 143.444 7.41 144.523 7.8 145.583C7.95331 145.999 8.10651 146.414 8.25973 146.83C9.58562 150.426 10.9126 154.025 12.32 157.583C12.84 158.893 13.55 160.163 14.34 161.333C16.486 164.51 18.6741 167.659 20.8631 170.81C21.2855 171.417 21.7079 172.025 22.13 172.633C23.23 174.223 24.63 175.513 26.26 176.563C26.4662 176.696 26.6723 176.829 26.8785 176.962C28.4418 177.967 30.0015 178.971 31.53 180.013C34.12 181.783 36.92 183.133 39.85 184.243C40.6161 184.531 41.3587 184.873 42.1016 185.214C42.726 185.501 43.3507 185.788 43.99 186.043C44.4038 186.21 44.8442 186.308 45.2831 186.406C45.5549 186.467 45.8261 186.527 46.09 186.603C46.6117 186.755 47.1317 186.916 47.652 187.076C48.3985 187.307 49.1458 187.537 49.9 187.743C50.0871 187.8 50.2936 187.789 50.5011 187.778C50.6595 187.77 50.8185 187.762 50.97 187.783C52.4896 187.999 54.0072 188.242 55.5249 188.485C58.7915 189.008 62.0591 189.531 65.35 189.783C69.6485 190.11 73.9767 190.075 78.3026 190.039C79.0085 190.033 79.7143 190.028 80.42 190.023C85.24 189.993 90.06 189.833 94.87 189.673C95.4709 189.651 96.0655 189.543 96.6608 189.436C97.1256 189.352 97.5909 189.267 98.06 189.223C99.58 189.073 101.11 188.973 102.64 188.913C103.915 188.862 105.192 188.823 106.468 188.785C108.636 188.72 110.805 188.656 112.97 188.523C113.626 188.482 114.273 188.316 114.921 188.149C115.528 187.993 116.136 187.837 116.75 187.783C118.79 187.613 120.84 187.584 122.88 187.594C127.43 187.624 131.98 187.693 136.53 187.773C138.16 187.803 139.53 187.133 140.74 186.163C140.945 185.998 141.151 185.834 141.357 185.67C142.998 184.36 144.642 183.049 145.93 181.344C146.083 181.142 146.236 180.941 146.39 180.74C147.354 179.48 148.313 178.226 148.96 176.733C149.738 174.929 150.606 173.163 151.474 171.396C151.934 170.461 152.393 169.525 152.84 168.583C153.15 167.943 153.42 167.263 153.59 166.563C153.88 165.363 154.59 164.443 155.7 164.083C156.602 163.792 157.479 163.423 158.356 163.054C160.035 162.347 161.714 161.641 163.56 161.483C164.861 161.371 166.154 161.178 167.448 160.985C169.845 160.626 172.245 160.268 174.7 160.423C176.173 160.52 177.65 160.556 179.127 160.592C180.718 160.631 182.308 160.669 183.89 160.783C186.401 160.964 188.906 161.231 191.411 161.497C192.517 161.615 193.624 161.733 194.73 161.844C194.789 161.85 194.848 161.858 194.908 161.865C195.112 161.89 195.321 161.916 195.53 161.923C198.619 162.07 201.695 162.377 204.77 162.684C206.303 162.837 207.836 162.99 209.37 163.124C212.2 163.364 215.04 163.613 217.85 164.013C223.77 164.845 229.474 166.578 235.177 168.311L235.35 168.363C238.354 169.277 241.297 170.38 244.24 171.483C244.873 171.721 245.506 171.958 246.14 172.193C249.54 173.463 252.92 174.773 256.29 176.124C258.606 177.059 260.909 178.02 263.214 178.982C264.432 179.49 265.65 179.999 266.87 180.503C268.184 181.048 269.498 181.59 270.812 182.131C273.6 183.28 276.387 184.428 279.16 185.603C285.32 188.223 291.7 190.123 298.29 191.313C300.032 191.629 301.778 191.919 303.524 192.208C306.478 192.698 309.431 193.188 312.36 193.803C316.03 194.574 319.73 194.904 323.42 194.844C327.488 194.778 331.556 194.508 335.621 194.239C337.111 194.141 338.601 194.042 340.09 193.953C340.821 193.91 341.553 193.872 342.284 193.834C344.561 193.716 346.834 193.599 349.09 193.303C352.307 192.886 355.509 192.28 358.702 191.675C359.182 191.584 359.661 191.494 360.14 191.404C361.193 191.203 362.238 190.951 363.284 190.698C364.223 190.47 365.163 190.243 366.11 190.053C367.97 189.683 369.844 189.347 371.716 189.012C372.671 188.84 373.627 188.669 374.58 188.493C379.27 187.624 383.65 185.933 387.92 183.813C390.227 182.667 392.56 181.575 394.893 180.483C397.748 179.146 400.603 177.81 403.41 176.374C405.04 175.538 406.547 174.468 408.055 173.398C408.75 172.906 409.444 172.413 410.15 171.943C415.966 168.092 421.009 163.358 426.069 158.609C426.316 158.377 426.563 158.145 426.81 157.913C432.37 152.693 437.82 147.363 442.82 141.603C444.302 139.892 445.597 138.022 446.892 136.151C447.345 135.496 447.799 134.842 448.26 134.193C452.98 127.573 456.78 120.434 460.24 113.094C460.601 112.328 460.902 111.53 461.203 110.732C461.311 110.445 461.419 110.159 461.53 109.874C461.541 109.843 461.553 109.811 461.565 109.778C461.632 109.596 461.709 109.389 461.65 109.253C461.36 108.545 461.596 107.92 461.829 107.302C461.885 107.152 461.941 107.003 461.99 106.853C463.442 102.479 464.546 98.0169 465.651 93.5552C466.303 90.9187 466.956 88.2821 467.68 85.6635C468.733 81.8595 469.18 77.9906 469.628 74.1181C469.707 73.4299 469.787 72.7416 469.87 72.0535C470.202 69.3013 470.405 66.5348 470.607 63.7705C470.698 62.5372 470.788 61.3044 470.89 60.0735C470.904 59.9124 470.943 59.7563 470.982 59.5982C470.998 59.5305 471.015 59.4624 471.03 59.3935V40.6335C471.014 40.4613 470.996 40.2891 470.977 40.1163C470.948 39.8476 470.918 39.5774 470.9 39.3035C470.802 37.6385 470.698 35.9727 470.594 34.3064C470.307 29.6881 470.019 25.0658 469.85 20.4435C469.8 19.0735 469.29 18.3235 468.43 17.4635C467.75 16.7835 467.04 16.3535 466.13 16.1235C465.57 15.9835 465.01 15.7335 464.5 15.4535C463.67 14.9935 462.8 14.9035 461.86 14.9135C456.785 14.952 451.924 16.1588 447.066 17.3647C445.615 17.7248 444.165 18.0847 442.71 18.4135C440.002 19.0241 437.332 19.8577 434.683 20.6852L434.56 20.7235C433.371 21.0954 432.196 21.5094 431.023 21.9231C429.641 22.4103 428.261 22.897 426.86 23.3135C423.05 24.4471 419.154 25.2354 415.26 26.0232C414.963 26.0833 414.667 26.1433 414.37 26.2035C409.776 27.1388 405.209 28.2086 400.641 29.2786C399.105 29.6386 397.568 29.9986 396.03 30.3535C393.945 30.8335 391.865 31.326 389.785 31.8185C387.705 32.311 385.625 32.8035 383.54 33.2835C382.696 33.4771 381.839 33.6372 380.983 33.797C380.601 33.8682 380.219 33.9394 379.84 34.0135C379.764 34.0291 379.688 34.0434 379.611 34.0577C379.391 34.0984 379.17 34.1395 378.97 34.2135C376.518 35.1365 373.953 35.225 371.38 35.3138C371.193 35.3203 371.007 35.3267 370.82 35.3335C368.904 35.4025 366.991 35.4968 365.079 35.5911C363.388 35.6745 361.699 35.7578 360.01 35.8235C358.677 35.8741 357.344 35.8963 356.011 35.9184C354.974 35.9356 353.937 35.9529 352.9 35.9835C352.431 35.9977 351.96 36.0321 351.489 36.0665C350.965 36.1047 350.441 36.143 349.92 36.1535C349.432 36.1631 348.947 36.1475 348.461 36.1319C347.931 36.1149 347.402 36.0978 346.87 36.1135C345.74 36.1435 344.62 36.2235 343.5 36.3135C343.167 36.3375 342.836 36.3809 342.505 36.4242C342.011 36.4889 341.517 36.5535 341.02 36.5535C340.197 36.5514 339.374 36.5524 338.551 36.5534C335.494 36.5573 332.439 36.5611 329.39 36.4035C325.28 36.1935 321.16 35.8635 317.09 35.3035C310.834 34.4456 304.6 33.4451 298.369 32.445C297.409 32.291 296.449 32.137 295.49 31.9835C294.926 31.8931 294.362 31.8033 293.798 31.7135C289.871 31.0883 285.942 30.4629 282.06 29.6235C278.516 28.854 274.99 28.0082 271.464 27.1625C268.483 26.4474 265.502 25.7324 262.51 25.0635C261.34 24.8035 260.26 24.4335 259.15 24.0235C257.29 23.3334 255.403 22.7085 253.517 22.0836C250.729 21.1601 247.942 20.2367 245.24 19.1035C242.764 18.0629 240.253 17.1194 237.743 16.1765C234.97 15.1349 232.199 14.0939 229.48 12.9235C228.408 12.4665 227.312 12.0679 226.216 11.6694C225.441 11.3876 224.666 11.1058 223.9 10.8035C223.72 10.7303 223.581 10.5555 223.44 10.3789ZM151.691 54.089L151.691 54.0891L151.688 54.0912C149.272 55.6587 146.856 57.2261 144.44 58.7835C144.44 58.8035 144.44 58.8335 144.42 58.8735C144.503 59.0268 144.587 59.1793 144.671 59.3317C144.873 59.6961 145.074 60.0598 145.25 60.4335C147.29 64.7635 148.06 69.3535 148.07 74.0935C148.077 76.7455 148.032 79.3928 147.987 82.0419V82.0421L147.987 82.0487C147.966 83.2531 147.946 84.4578 147.93 85.6635L147.93 85.6819C147.87 90.2958 147.81 94.9096 147.76 99.5235C147.73 102.533 147.7 105.543 147.68 108.553C147.676 109.561 147.672 110.568 147.668 111.575L147.667 111.687C147.65 115.863 147.632 120.038 147.64 124.213C147.65 125.143 147.77 126.093 147.95 127.013C148.19 128.203 148.6 129.343 149.61 130.143C150.229 130.638 150.845 131.135 151.461 131.632L151.461 131.632L151.461 131.632C152.714 132.644 153.966 133.654 155.24 134.633C160.041 138.328 164.855 142.003 169.672 145.68L169.672 145.68C170.735 146.491 171.797 147.302 172.86 148.113L174.12 149.073C180.5 143.713 186.85 138.373 193.21 133.023L193.27 133.071L193.27 133.072C193.347 133.132 193.416 133.188 193.48 133.243C194.08 133.768 194.677 134.296 195.275 134.823C195.872 135.351 196.47 135.878 197.07 136.404C199.77 138.783 202.473 141.163 205.175 143.543C207.878 145.923 210.58 148.303 213.28 150.684C213.47 150.853 213.6 150.863 213.81 150.714C217.524 148.037 221.24 145.362 224.956 142.688L224.99 142.663L225.024 142.639C228.74 139.965 232.456 137.29 236.17 134.613C236.229 134.57 236.287 134.515 236.361 134.446L236.364 134.443C236.391 134.418 236.419 134.392 236.45 134.363C234.23 134.043 232.09 133.733 229.91 133.413C229.96 133.303 229.99 133.243 230.02 133.184L230.021 133.182C230.981 131.513 231.94 129.843 232.92 128.183C234.38 125.723 236.32 123.703 238.7 122.113C240.53 120.893 242.5 119.993 244.58 119.323C244.86 119.233 244.98 119.113 244.97 118.803C244.956 118.438 244.967 118.068 244.978 117.7L244.978 117.699C244.983 117.553 244.987 117.408 244.99 117.263L244.99 117.252C245.03 114.786 245.07 112.32 245.1 109.853L245.1 109.807L245.101 109.802C245.14 105.889 245.18 101.986 245.2 98.0735C245.2 97.8935 245.08 97.6535 244.94 97.5235C244.297 96.9128 243.648 96.3084 242.999 95.7041C241.83 94.6163 240.661 93.5285 239.53 92.4035C237.33 90.2135 235.59 87.6835 234.39 84.8035C233.2 81.9476 232.468 78.9596 231.736 75.9695L231.736 75.9691L231.736 75.9683C231.638 75.5666 231.539 75.1649 231.44 74.7635C231.41 74.6635 231.51 74.4835 231.6 74.4035C231.983 74.0894 232.378 73.7811 232.771 73.4742L232.772 73.4734C232.837 73.4227 232.902 73.372 232.967 73.3214C233.021 73.2787 233.076 73.2361 233.13 73.1935C234.45 72.1613 235.77 71.1281 237.09 70.0948L237.117 70.0737L237.128 70.0653C239.785 67.9851 242.443 65.9048 245.1 63.8335C245.32 63.6635 245.41 63.4835 245.4 63.2035C245.385 62.8435 245.382 62.4835 245.38 62.1235C245.377 61.7635 245.375 61.4035 245.36 61.0435C245.23 57.5635 244.36 54.3035 242.48 51.3535C240.83 48.7535 238.62 46.7235 236.07 45.0235C235.82 44.8435 235.65 44.8435 235.39 45.0235L235.389 45.0241L235.388 45.0248C229.889 48.8944 224.389 52.7639 218.87 56.6135C218.54 56.8335 218.47 57.0435 218.57 57.4135C218.828 58.3766 219.085 59.3397 219.341 60.3019L219.347 60.3254L219.347 60.326C219.674 61.5538 220 62.7802 220.33 64.0035C220.95 66.3135 221.52 68.6335 221.59 71.0335C221.65 73.1735 221.66 75.3035 221.66 77.4435C221.66 81.0935 221.65 84.7435 221.63 88.3935C221.62 91.0135 221.6 93.6435 221.57 96.2635C221.555 97.7185 221.535 99.176 221.515 100.633C221.495 102.091 221.475 103.548 221.46 105.003C221.435 107.058 221.412 109.111 221.39 111.163C221.367 113.216 221.345 115.268 221.32 117.323L221.32 117.351V117.352C221.31 118.353 221.3 119.363 221.28 120.363C221.23 122.583 220.05 123.913 217.95 124.083C217.73 124.103 217.45 124.003 217.29 123.863C216.25 122.963 215.14 122.163 213.95 121.463C211.67 120.123 210.11 118.183 209.39 115.613C208.94 113.983 208.82 112.313 208.88 110.623C208.94 108.904 209.005 107.183 209.071 105.461L209.072 105.453L209.072 105.451C209.172 102.84 209.272 100.227 209.35 97.6135C209.44 94.4226 209.48 91.2218 209.52 88.0309V88.0306V88.0303L209.52 88.0035C209.55 85.8628 209.572 83.7247 209.595 81.5866L209.595 81.5735L209.595 81.5603C209.618 79.4222 209.64 77.2841 209.67 75.1435C209.7 72.8835 209.76 70.6235 209.84 68.3635C210 64.0935 209.51 59.9135 208.29 55.8235C207.12 51.9035 204.91 48.7135 201.39 46.5135C201.13 46.3535 200.96 46.3435 200.7 46.5135C195.799 49.7316 190.885 52.9436 185.974 56.1544C184.582 57.0641 183.191 57.9738 181.8 58.8835C181.69 58.9635 181.58 59.0435 181.45 59.1335C181.55 59.3135 181.64 59.4635 181.74 59.6135C182.98 61.5435 183.95 63.6135 184.67 65.7935C185.83 69.3035 186.22 72.9335 186.23 76.6135C186.25 84.7735 186.27 92.9335 186.3 101.093C186.307 102.167 186.322 103.24 186.338 104.314C186.346 104.85 186.353 105.387 186.36 105.923C186.375 106.708 186.395 107.494 186.415 108.28L186.416 108.284L186.416 108.284V108.285C186.465 110.201 186.515 112.12 186.48 114.033C186.4 118.133 184.58 121.283 181.02 123.393C180.58 123.653 180.21 123.773 179.75 123.443C179.573 123.315 179.373 123.217 179.174 123.118C179.047 123.056 178.921 122.993 178.8 122.923C175.82 121.203 173.68 118.803 172.71 115.443C172.25 113.853 172.13 112.233 172.16 110.583L172.161 110.526V110.526L172.161 110.523C172.221 107.753 172.28 104.993 172.31 102.223C172.343 99.4517 172.359 96.6754 172.374 93.9006V93.9003C172.382 92.5108 172.39 91.1216 172.4 89.7335L172.46 80.4035C172.47 77.5835 172.48 74.7735 172.5 71.9535C172.502 71.5452 172.504 71.1368 172.505 70.7285V70.7281C172.512 69.0966 172.518 67.465 172.55 65.8335C172.61 63.2035 172.56 60.5835 172.09 57.9935C171.21 53.1135 168.91 49.0535 165.14 45.8235C164.9 45.6135 164.74 45.6135 164.47 45.7835C160.22 48.5535 155.96 51.3235 151.7 54.0835L151.691 54.089ZM326.176 130.75C326.346 130.387 326.516 130.024 326.69 129.663C326.69 129.633 326.69 129.603 326.73 129.563C326.704 129.525 326.678 129.487 326.652 129.449L326.652 129.448L326.652 129.448C326.556 129.306 326.459 129.163 326.38 129.013C325.14 126.633 324.68 124.073 324.72 121.413C324.738 120.202 324.763 118.989 324.789 117.775L324.789 117.759C324.821 116.233 324.853 114.707 324.87 113.184C324.903 110.437 324.919 107.69 324.934 104.943C324.942 103.57 324.95 102.197 324.96 100.823C324.98 96.6635 325.01 92.4935 325.04 88.3335C325.055 85.9016 325.068 83.4723 325.08 81.0429L325.08 80.9549C325.093 78.5586 325.105 76.1623 325.12 73.7635C325.12 73.2151 325.125 72.6693 325.13 72.1235L325.13 72.1185L325.13 72.1135C325.135 71.5677 325.14 71.0218 325.14 70.4735C325.14 70.0862 325.142 69.6987 325.143 69.311V69.3107V69.3104V69.3102V69.3099C325.153 66.8857 325.162 64.4572 324.8 62.0435C324.23 58.2735 323.01 54.7635 320.82 51.6135C319.56 49.7935 318.05 48.2035 316.32 46.7735C311.33 50.0135 306.36 53.2435 301.36 56.4935L301.387 56.5124C301.473 56.5727 301.536 56.6172 301.6 56.6535C302.33 57.0536 303.058 57.4562 303.786 57.8588C304.513 58.2612 305.24 58.6636 305.97 59.0635C306.17 59.1735 306.29 59.2735 306.19 59.5435C305.981 60.1069 305.784 60.6752 305.588 61.2438L305.587 61.2462L305.587 61.2466C305.296 62.0899 305.004 62.9338 304.67 63.7635C303.12 67.5935 300.7 70.6635 296.94 72.5635C296.84 72.6035 296.77 72.8135 296.78 72.9435C296.809 73.2363 296.848 73.5292 296.887 73.822L296.887 73.8276C296.954 74.3329 297.021 74.8382 297.04 75.3435C297.13 77.7335 297.19 80.1335 297.22 82.5335C297.234 83.5913 297.214 84.6541 297.193 85.7149V85.7157C297.185 86.1688 297.176 86.6216 297.17 87.0735C297.12 90.6835 297.08 94.2835 297.04 97.8935C297.04 98.0435 297.1 98.2235 297.19 98.3435C300.29 102.284 302.79 106.604 305.23 110.964C307.79 115.553 309.61 120.354 309.54 125.714C309.53 126.014 309.47 126.214 309.21 126.404C307.176 127.933 305.144 129.465 303.112 130.997C301.079 132.53 299.046 134.063 297.01 135.594C296.79 135.764 296.68 135.934 296.71 136.214C296.753 136.59 296.788 136.967 296.823 137.343L296.823 137.344C296.904 138.199 296.983 139.051 297.15 139.883C297.4 141.163 297.9 142.353 298.98 143.203C300.539 144.438 302.1 145.672 303.661 146.906C305.225 148.142 306.789 149.378 308.35 150.613C308.402 150.653 308.459 150.692 308.52 150.731C308.552 150.752 308.585 150.773 308.62 150.793C308.853 150.571 309.082 150.357 309.31 150.145C309.522 149.947 309.732 149.752 309.94 149.553C310.844 148.704 311.752 147.859 312.661 147.014L312.663 147.012L312.664 147.011L312.664 147.011C314.76 145.062 316.857 143.112 318.9 141.103C321.25 138.793 323.29 136.203 324.9 133.313C325.365 132.482 325.771 131.616 326.176 130.75ZM271.39 150.973C271.267 150.858 271.147 150.748 271.03 150.64C270.822 150.449 270.622 150.265 270.43 150.073C266.22 145.763 261.67 141.853 256.54 138.653C250.55 134.913 244.09 132.423 237.12 131.263C236.646 131.188 236.168 131.117 235.655 131.041L235.653 131.041L235.4 131.004C235.247 130.981 235.091 130.958 234.93 130.933C235.096 130.676 235.255 130.422 235.411 130.172L235.412 130.171C235.766 129.606 236.106 129.063 236.48 128.543C238.62 125.583 241.56 123.723 244.96 122.513C247.68 121.543 250.5 121.023 253.36 120.753C254.82 120.613 256.29 120.503 257.76 120.463C261.46 120.363 264.96 121.263 268.34 122.693C271.674 124.098 274.792 125.904 277.918 127.715L277.919 127.715L278.02 127.773C278.16 127.853 278.31 127.933 278.46 128.013C278.471 128.019 278.486 128.018 278.518 128.017C278.543 128.015 278.578 128.013 278.63 128.013L278.511 127.519C278.283 126.569 278.057 125.631 277.81 124.693C277.76 124.503 277.62 124.323 277.48 124.173C276.615 123.189 275.755 122.201 274.894 121.212C272.957 118.988 271.02 116.764 269.04 114.583C266.66 111.953 263.97 109.643 261.29 107.343C259.617 105.907 257.94 104.476 256.262 103.045C253.325 100.541 250.388 98.0363 247.48 95.5035C245.47 93.7535 243.54 91.9135 241.65 90.0435C238.9 87.3135 237.17 83.9735 236.14 80.2535C235.988 79.6964 235.84 79.1376 235.692 78.5786C235.478 77.7728 235.264 76.9664 235.04 76.1635C234.96 75.8735 235.02 75.7135 235.25 75.5435L235.257 75.5377C239.595 72.1496 243.932 68.7615 248.27 65.3635C250.862 63.3353 253.456 61.307 256.05 59.2785L256.065 59.2668C261.97 54.6483 267.877 50.0283 273.78 45.4035C274.08 45.1735 274.28 45.1635 274.6 45.3435C283.72 50.3935 292.84 55.4335 301.97 60.4635C302.33 60.6635 302.39 60.8235 302.25 61.1935C301.54 63.1635 300.67 65.0435 299.33 66.6635C297.39 69.0135 294.86 70.3335 291.91 70.9335C289.38 71.4435 286.84 71.4435 284.29 71.2235C279.78 70.8335 275.39 69.8235 271.04 68.6635C270.75 68.5835 270.56 68.6335 270.34 68.8335C268.46 70.4835 266.61 72.1535 265.04 74.1135C264.85 74.3535 264.83 74.5035 264.99 74.7535C266.31 76.8335 268.11 78.4335 270.15 79.7535C271.204 80.4333 272.273 81.0863 273.342 81.7389C274.333 82.3437 275.324 82.9482 276.3 83.5735C286.41 90.0835 294.53 98.4935 300.46 108.983C300.709 109.426 300.961 109.867 301.213 110.308L301.213 110.308C302.386 112.36 303.558 114.412 304.48 116.593C305.5 119.003 306.19 121.483 306.31 124.103C306.32 124.383 306.31 124.613 306.04 124.823C294.619 133.437 283.197 142.06 271.776 150.684L271.75 150.703C271.652 150.794 271.54 150.87 271.448 150.933C271.428 150.947 271.408 150.961 271.39 150.973Z" fill="black"/>
</svg>
