<svg viewBox="0 0 758 342" fill="none" xmlns="http://www.w3.org/2000/svg">
<path fill-rule="evenodd" clip-rule="evenodd" d="M383.64 65.8435C386.15 61.8835 389.99 60.2035 394.36 59.3035C401.98 57.7235 409.24 58.7335 415.77 62.7935C416.702 63.3732 417.656 63.9207 418.68 64.5087L418.681 64.5093L418.684 64.5108C419.372 64.9061 420.093 65.3196 420.86 65.7735C420.804 65.4272 420.757 65.0921 420.712 64.7667C420.509 63.2972 420.333 62.0252 419.4 60.8135C413.16 52.7235 404.93 46.2635 396.62 39.8235C394.496 38.1819 392.449 36.4626 390.396 34.7385C389.898 34.3201 389.4 33.9014 388.9 33.4835C385.63 30.7535 384.24 27.1835 383.27 23.4635C383.15 23.0235 383.81 22.2535 384.34 21.8835C393.45 15.6235 402.86 9.58347 412.52 3.75348C412.926 3.50812 413.332 3.26105 413.737 3.01386C415.298 2.06217 416.863 1.1087 418.49 0.24347C418.98 -0.0165092 419.96 -0.0965263 420.43 0.143464C428.44 4.24347 436.26 8.54349 443.94 12.9635C444.044 13.0257 444.133 13.1071 444.218 13.1845L444.219 13.1849C444.256 13.2193 444.293 13.2528 444.33 13.2835C442.52 17.7835 438.37 20.0935 432.29 20.0035C426.89 19.9235 421.76 18.5935 416.63 17.2235C415.53 16.9235 414.83 17.0635 414.01 17.6635C412.947 18.4405 411.853 19.1905 410.781 19.9254C410.129 20.3727 409.484 20.8145 408.86 21.2535C410.46 24.2635 412.81 25.9135 415.36 27.3635C420.42 30.2335 425.15 33.4235 429.23 37.2935C435.46 43.2035 439.68 50.1535 442.74 57.6435C442.78 57.7435 442.81 57.8435 442.84 57.9435C444.49 62.8835 444.34 63.1335 439.67 65.7935C431.15 70.6835 422.86 75.7635 414.78 81.0035C414.655 81.0841 414.528 81.1648 414.398 81.2473C414.31 81.3031 414.22 81.3597 414.128 81.4178L414.122 81.4214C413.862 81.5858 413.583 81.762 413.27 81.9635C405.54 73.6235 396.07 67.4535 383.64 65.8435ZM463.63 4.98346C459.39 6.87347 455.18 8.81348 450.91 10.8435C453.98 14.6635 454.79 18.7735 454.48 23.0535C454.375 24.4795 454.19 25.894 454.005 27.3089C453.89 28.186 453.776 29.0633 453.68 29.9435L453.284 33.5059C452.215 43.1285 451.146 52.752 450.14 62.3835L450.087 62.8951C449.568 67.9632 449.052 73.0038 445.84 77.4735C449.6 80.1035 453.2 82.6835 456.78 85.3135C460.75 83.1535 464.7 81.0835 468.27 79.2535C468.175 78.3878 468.052 77.5594 467.932 76.7575C467.686 75.105 467.456 73.5651 467.53 72.0435C467.728 68.081 468.22 64.1452 468.712 60.211L468.712 60.2105L468.8 59.5035C469.35 55.0735 472.67 51.8735 477.58 51.2535C478.44 51.1435 479.67 51.6035 480.36 52.1735C481.92 53.4535 481.85 55.2135 481.56 56.9135C481.145 59.3057 480.725 61.696 480.305 64.0861L480.305 64.0895C479.752 67.2334 479.2 70.3768 478.66 73.5235C477.74 78.9435 479.19 83.6435 483.7 87.4035C485.24 88.6935 486.82 89.2135 488.86 88.2835C492.129 86.7922 495.483 85.4572 498.851 84.1167L498.852 84.116L498.856 84.1147L498.859 84.1134L499.177 83.9867L499.883 83.7054L500.451 83.4788L500.74 83.3635C500.918 83.2935 501.084 83.1871 501.258 83.0753L501.26 83.0746L501.26 83.0744C501.359 83.0107 501.461 82.9451 501.57 82.8835C501.14 82.1535 500.76 81.5035 500.38 80.8435C498.33 77.2535 497.43 73.5835 498.38 69.5435C499.285 65.683 500.1 61.806 500.915 57.9277L500.915 57.927C501.515 55.0745 502.114 52.2213 502.75 49.3735C503.03 48.1435 502.84 47.1735 501.86 46.1735C501.014 45.3149 500.226 44.4112 499.437 43.5071L499.436 43.5061L499.436 43.5058L499.436 43.5055C498.994 42.999 498.552 42.4924 498.1 41.9935C495.37 38.9635 492.6 35.9635 489.77 32.9535C485.025 35.0792 480.473 37.221 475.949 39.3501L474.39 40.0835C473.887 40.3212 473.288 40.3928 472.689 40.4644C472.406 40.4983 472.123 40.5321 471.85 40.5835C471.814 40.3467 471.757 40.1078 471.7 39.8692C471.585 39.3822 471.47 38.8966 471.53 38.4335C472.59 30.2535 473.66 22.0735 474.82 13.9035C475.35 10.2035 473.95 7.07349 470.99 4.22348C469.61 2.90347 468.42 2.55347 466.73 3.59348C466.097 3.98151 465.371 4.27222 464.644 4.56342C464.303 4.69995 463.962 4.83661 463.63 4.98346ZM508.05 61.917L508.052 61.9084C508.716 58.5694 509.38 55.2289 510 51.8835C510.19 50.8535 510.61 50.2935 511.8 49.9535C521 47.3635 530.32 44.9135 539.77 42.6435C541.02 42.3435 541.79 42.4935 542.74 43.4135C547.207 47.735 551.608 52.0729 556.002 56.4049L557.34 57.7235C559.46 59.8134 560.04 61.9835 559.34 64.5334C557.831 70.0557 556.372 75.5904 554.914 81.1227L554.913 81.1237L554.911 81.1313C554.525 82.5989 554.138 84.0664 553.75 85.5334C553.548 86.3 553.377 87.0742 553.206 87.8495L553.205 87.85C553.037 88.612 552.868 89.3752 552.67 90.1335C552.12 92.2035 550.76 93.4435 548.45 93.8035C540.56 95.0435 532.78 96.5135 525.07 98.0334C524.5 98.1435 523.64 97.8835 523.18 97.5035C517.24 92.5435 511.23 87.6035 505.01 82.8335C504.18 82.2035 504.13 81.6234 504.3 80.7935C504.996 77.3912 505.667 73.984 506.338 70.5788C506.621 69.1398 506.905 67.7012 507.19 66.2635C507.473 64.8235 507.759 63.3837 508.045 61.9435L508.05 61.917ZM533.782 82.3206L533.783 82.3197L533.783 82.3194C534.277 81.3502 534.733 80.4551 535.04 79.5135C535.941 76.7554 536.782 73.9786 537.622 71.2023C538.013 69.912 538.403 68.6217 538.8 67.3335C540.28 62.6135 536.24 56.5735 531 55.7835C530.978 55.8085 530.952 55.8325 530.927 55.8565C530.87 55.9092 530.814 55.9616 530.8 56.0235C529.15 63.0334 527.51 70.0435 525.91 77.0635C525.83 77.4135 526.07 78.0034 526.38 78.2635C527.681 79.3498 528.994 80.4136 530.375 81.5334C531.245 82.238 532.141 82.9648 533.08 83.7335C533.315 83.2384 533.553 82.7715 533.782 82.3206ZM632.76 57.6935C638.51 57.0235 644.39 56.4235 650.32 55.9035C650.987 55.8451 651.657 55.7996 652.327 55.7542L652.328 55.7541C653.608 55.6674 654.887 55.5806 656.14 55.4035C657.48 55.2135 657.99 55.7135 658.55 56.7435C661.57 62.3435 661.48 67.7135 659.21 72.7135C656.25 79.2232 653.235 85.7085 650.222 92.1923C647.148 98.806 644.075 105.418 641.06 112.053C640.515 113.245 640.262 114.568 640.009 115.894C639.866 116.637 639.724 117.381 639.53 118.103C639.36 118.753 639.15 119.513 638.66 119.923C635.29 122.783 631.11 124.303 626.85 125.653C625.505 126.079 624.156 126.489 622.787 126.905L622.784 126.906L622.782 126.907C621.384 127.332 619.965 127.764 618.51 128.223C617.922 127.201 617.303 126.193 616.686 125.187C615.424 123.131 614.167 121.082 613.18 118.933C612.56 117.593 612.85 115.603 613.42 114.193C615.948 107.925 618.551 101.69 621.154 95.4535L621.155 95.4528C623.103 90.7849 625.052 86.1165 626.97 81.4335C627.511 80.1106 628.1 78.8043 628.689 77.4979C630.517 73.4419 632.347 69.3844 632.74 64.8235C632.871 63.2664 632.835 61.6711 632.797 59.9911V59.9908C632.78 59.2432 632.763 58.4788 632.76 57.6935ZM698.08 103.763C691.48 103.653 685.08 103.663 678.6 103.773C678.564 102.948 678.533 102.147 678.502 101.367C678.394 98.6402 678.295 96.15 678.07 93.6235C677.83 91.0035 676.05 89.3735 673.17 89.0535C668.03 88.4735 662.91 88.0535 657.81 87.6635C657.2 87.614 656.591 87.5917 655.958 87.5687L655.948 87.5683L655.94 87.568L655.798 87.5628L655.55 87.5535C657.53 93.9335 657.49 95.7635 655.29 101.403C654.805 102.637 654.238 103.832 653.671 105.027L653.671 105.027C653.313 105.78 652.956 106.532 652.62 107.293C651.956 108.801 651.313 110.32 650.67 111.838C647.937 118.297 645.204 124.755 640.8 130.373C640.57 130.673 640.62 131.423 640.86 131.763C642.83 134.543 644.81 137.313 646.83 140.043C647.73 141.253 649.01 141.763 650.55 141.513C654.43 140.883 658.33 140.323 662.26 139.813C662.494 139.781 662.74 139.795 663.032 139.811C663.19 139.82 663.361 139.83 663.55 139.833C661.34 135.953 661.85 132.743 663.44 129.573C664.911 126.641 666.315 123.668 667.718 120.699L667.718 120.699L667.718 120.698L667.719 120.697L667.719 120.697L667.719 120.696L667.72 120.695L667.72 120.694L667.72 120.694L667.721 120.693L667.721 120.692L667.721 120.691L667.722 120.691L667.722 120.69L667.722 120.689C668.045 120.007 668.367 119.325 668.69 118.643C669.79 116.323 671.65 115.003 674.61 115.063C675.89 115.093 677.19 115.123 678.45 114.993C679.45 114.893 679.95 115.323 680.47 116.053C682.29 118.643 681.78 120.983 680.6 123.293C679.665 125.118 678.734 126.945 677.804 128.772L677.802 128.774L677.802 128.775C675.846 132.613 673.891 136.45 671.9 140.263C669.57 144.733 669.72 149.183 672.53 153.773C673.06 154.643 673.61 154.993 674.67 154.963C679.46 154.833 684.29 154.853 689.15 154.903C689.407 154.911 689.664 154.867 689.922 154.823C690.024 154.805 690.127 154.788 690.23 154.773C689.16 150.253 689.47 147.983 691.88 143.793C693.489 140.99 695.106 138.194 696.722 135.398L696.725 135.393C698.343 132.596 699.96 129.798 701.57 126.993C701.927 126.37 702.355 125.755 702.783 125.138C703.818 123.649 704.859 122.151 704.93 120.503C705.001 118.832 704.073 116.997 703.15 115.174C702.781 114.445 702.413 113.718 702.11 113.003C700.82 109.923 699.46 106.853 698.08 103.763ZM713.54 168.953C708.87 169.053 704.56 169.213 700.27 169.423C698.69 169.503 697.5 168.793 696.71 167.483C694.97 164.583 693.24 161.683 691.57 158.743C691.34 158.333 691.52 157.513 691.82 157.103C692.645 155.967 693.524 154.863 694.403 153.761C695.92 151.857 697.435 149.954 698.67 147.883C702.66 141.153 706.34 134.243 709.98 127.323C711.65 124.153 711.71 120.573 710.48 116.833C710.437 116.711 710.42 116.584 710.395 116.393C710.38 116.273 710.361 116.128 710.33 115.943C716.67 117.103 722.9 118.303 729.13 119.713C730.9 120.113 732.43 122.233 732.44 124.223C732.455 126.241 732.352 128.241 732.249 130.242C732.214 130.909 732.18 131.576 732.15 132.243C732.134 132.597 732.111 132.948 732.085 133.368L732.085 133.369C732.063 133.719 732.037 134.117 732.01 134.603C738.6 135.173 745.08 135.843 751.69 136.643C753.61 142.323 755.45 147.933 757.1 153.563C757.26 154.093 756.87 154.783 756.53 155.263C754.932 157.513 753.321 159.751 751.711 161.988L751.708 161.992L751.705 161.996L751.703 161.999L751.7 162.003L751.698 162.007L751.695 162.01L751.692 162.014L751.69 162.018L751.687 162.021L751.686 162.023L751.686 162.023L751.686 162.023L751.685 162.024L751.685 162.024L751.685 162.024L751.685 162.024L751.684 162.025L751.684 162.025L751.684 162.025L751.684 162.026L751.684 162.026L751.683 162.026L751.683 162.026L751.683 162.027C748.484 166.471 745.287 170.912 742.2 175.433C740.75 177.563 739.79 180.073 738.95 182.553C738.674 183.383 738.761 184.358 738.853 185.389C738.898 185.887 738.943 186.399 738.95 186.913C736.09 186.583 733.17 186.263 730.25 185.973C729.74 185.923 729.231 185.871 728.722 185.819L728.71 185.818C726.907 185.634 725.111 185.45 723.32 185.333C722.42 185.273 721.91 184.983 721.49 184.143C719.24 179.623 718.97 175.303 721.51 171.263C723.915 167.441 726.352 163.64 728.791 159.839L728.799 159.825L728.801 159.822L728.803 159.82L728.804 159.817L728.806 159.815L728.807 159.812L728.809 159.809L728.811 159.807L728.812 159.804L728.814 159.802L728.816 159.799L728.817 159.797L728.819 159.794L728.82 159.791L728.822 159.789C730.002 157.948 731.183 156.108 732.36 154.263C733.76 152.073 734.46 149.723 732.71 147.023C732.38 146.513 731.57 146.023 730.95 145.903C730.098 145.732 729.239 145.673 728.381 145.615L728.38 145.615L728.38 145.615L728.379 145.615L728.378 145.615L728.377 145.615L728.376 145.614L728.375 145.614L728.375 145.614L728.374 145.614L728.373 145.614L728.372 145.614C727.883 145.581 727.395 145.548 726.91 145.493C724.02 145.173 722.08 146.283 720.79 148.443L720.574 148.804L720.322 149.224L719.794 150.106C718.212 152.753 716.63 155.397 714.96 157.993C712.84 161.233 711.49 164.603 713.54 168.953ZM366.44 157.379C366.368 157.29 366.297 157.201 366.22 157.123L365.22 156.923C364.92 156.943 364.59 156.913 364.31 156.813C363.716 156.606 363.123 156.388 362.529 156.169C361.635 155.839 360.738 155.508 359.83 155.214C359.456 155.095 359.057 155.059 358.657 155.023L358.657 155.023C358.447 155.004 358.237 154.984 358.03 154.953C357.83 154.923 357.62 154.873 357.43 154.793L357.424 154.791C355.406 153.872 353.388 152.953 351.38 152.013C351.145 151.902 350.931 151.757 350.716 151.611L350.656 151.571L350.598 151.531L350.547 151.498L350.524 151.482L350.484 151.456L350.455 151.437C350.427 151.419 350.399 151.401 350.37 151.383C350.332 151.36 350.294 151.333 350.256 151.306C350.163 151.241 350.069 151.175 349.97 151.154C349.348 151.019 348.725 150.894 348.103 150.769C347.013 150.549 345.926 150.331 344.85 150.063C344.335 149.934 343.833 149.746 343.33 149.559C342.828 149.371 342.325 149.184 341.81 149.053C340.837 148.814 339.856 148.627 338.874 148.441L338.872 148.44L338.866 148.439L338.859 148.438C338.372 148.345 337.886 148.253 337.4 148.154L335.78 147.823H334.16C333.961 147.847 333.76 147.866 333.56 147.885L333.557 147.886C333.075 147.932 332.593 147.978 332.12 148.083C332.035 148.103 331.95 148.122 331.864 148.141C331.193 148.29 330.504 148.443 329.91 148.753C317.31 155.434 304.68 162.034 291.39 167.273C283.87 170.244 276.09 172.363 268.27 174.363C266.633 174.783 264.967 175.085 263.302 175.387L263.3 175.387C261.629 175.69 259.958 175.993 258.32 176.414C255.022 177.263 251.664 177.681 248.307 178.098L248.306 178.098L248.306 178.098L248.305 178.098L248.305 178.099L248.304 178.099L248.304 178.099L248.303 178.099L248.303 178.099L248.302 178.099L248.302 178.099L248.301 178.099L248.3 178.099L248.3 178.099L248.299 178.099L248.299 178.1L248.298 178.1C246.325 178.345 244.351 178.59 242.39 178.923C239.567 179.405 236.684 179.56 233.806 179.715C233.157 179.75 232.508 179.785 231.86 179.823C226.33 180.154 220.79 180.443 215.25 180.633C214.327 180.663 213.396 180.532 212.465 180.4L212.464 180.4C211.842 180.312 211.22 180.224 210.6 180.183C209.435 180.107 208.269 180.059 207.105 180.01L207.103 180.01L207.102 180.01L207.1 180.01L207.099 180.01L207.097 180.01L207.096 180.01L207.094 180.009L207.093 180.009L207.091 180.009L207.09 180.009L207.088 180.009L207.087 180.009L207.085 180.009L207.083 180.009L207.081 180.009L207.079 180.009L207.075 180.008H207.075H207.074H207.073H207.073H207.072H207.072H207.071H207.071H207.07H207.07H207.069H207.069H207.068H207.067H207.067C205.796 179.955 204.527 179.902 203.26 179.813C200.97 179.655 198.688 179.434 196.4 179.213L195.47 179.123C194.515 179.031 193.562 178.924 192.609 178.817C190.997 178.637 189.385 178.457 187.77 178.344L187.631 178.334C186.521 178.258 185.454 178.184 184.35 177.964C183.264 177.742 182.147 177.699 181.029 177.656C180.582 177.639 180.135 177.622 179.69 177.594C179.31 177.57 178.929 177.558 178.548 177.546C177.786 177.521 177.023 177.497 176.27 177.383C175.675 177.299 175.089 177.143 174.5 176.986L174.499 176.986C173.97 176.845 173.439 176.703 172.9 176.613C171.526 176.385 170.149 176.178 168.772 175.971L168.772 175.971L168.771 175.971L168.77 175.971L168.77 175.971L168.769 175.971L168.769 175.971L168.768 175.971L168.768 175.971L168.767 175.971L168.767 175.97L168.766 175.97L168.765 175.97L168.765 175.97L168.764 175.97L168.764 175.97C167.006 175.706 165.248 175.442 163.5 175.133C163.339 175.105 163.179 175.076 163.018 175.047L163.018 175.047C161.16 174.712 159.306 174.378 157.41 174.543C156.017 174.66 154.643 174.815 153.261 174.971L153.15 174.983C152.31 175.083 151.64 175.523 151.39 176.333C150.83 178.203 150.31 180.093 149.83 181.993C148.24 188.203 147.13 194.513 146.34 200.873C145.967 203.842 145.683 206.824 145.399 209.805C145.256 211.302 145.114 212.799 144.96 214.293C144.85 215.359 144.725 216.424 144.601 217.488L144.6 217.492C144.361 219.532 144.121 221.57 143.99 223.613C143.816 226.258 143.725 228.914 143.634 231.57C143.584 233.032 143.534 234.494 143.47 235.953C143.447 236.461 143.385 236.967 143.324 237.472L143.324 237.473C143.252 238.062 143.181 238.651 143.17 239.244C143.14 240.773 143.18 242.314 143.3 243.844C143.418 245.397 143.534 246.951 143.649 248.505L143.65 248.51L143.65 248.511L143.65 248.512L143.65 248.513L143.65 248.514L143.65 248.515L143.65 248.516L143.65 248.517L143.65 248.518L143.65 248.519L143.651 248.52L143.651 248.521L143.651 248.522L143.651 248.523L143.651 248.524L143.651 248.525C144.064 254.077 144.477 259.631 145 265.173C145.66 272.113 146.7 279.003 148.99 285.643C149.236 286.357 149.374 287.106 149.512 287.854L149.512 287.855L149.512 287.855L149.512 287.855L149.512 287.855L149.512 287.856L149.512 287.856C149.604 288.356 149.696 288.855 149.82 289.344C150.1 290.444 150.41 291.523 150.8 292.583L151.26 293.83L151.261 293.832L151.261 293.834L151.262 293.836L151.263 293.838L151.263 293.839L151.264 293.841L151.264 293.843L151.265 293.844L151.266 293.846L151.266 293.848L151.267 293.85L151.268 293.851L151.268 293.853L151.269 293.855L151.27 293.857L151.27 293.858C152.593 297.445 153.916 301.034 155.32 304.583C155.84 305.893 156.55 307.163 157.34 308.333C159.482 311.505 161.666 314.648 163.851 317.793L163.852 317.794L163.853 317.795L163.854 317.796L163.854 317.797L163.855 317.798L163.856 317.799L163.857 317.8L163.857 317.801L163.858 317.802L163.859 317.803L163.859 317.804L163.86 317.805L163.861 317.806L163.862 317.808L163.862 317.809L163.863 317.81C164.285 318.417 164.708 319.025 165.13 319.633C166.23 321.223 167.63 322.513 169.26 323.563L169.878 323.962C171.442 324.967 173.002 325.971 174.53 327.013C177.12 328.783 179.92 330.133 182.85 331.244C183.616 331.531 184.358 331.872 185.1 332.213L185.101 332.214L185.102 332.214C185.726 332.501 186.351 332.788 186.99 333.043C187.404 333.21 187.844 333.308 188.283 333.406C188.555 333.467 188.826 333.527 189.09 333.603C189.612 333.755 190.132 333.916 190.652 334.076C191.398 334.307 192.146 334.537 192.9 334.744C193.087 334.8 193.294 334.789 193.501 334.778C193.659 334.77 193.818 334.762 193.97 334.783C195.49 334.999 197.007 335.242 198.525 335.485C201.792 336.008 205.059 336.531 208.35 336.783C212.648 337.11 216.976 337.075 221.302 337.039H221.303H221.304C222.009 337.033 222.715 337.028 223.42 337.023C228.24 336.994 233.06 336.833 237.87 336.673C238.471 336.651 239.065 336.543 239.661 336.436L239.661 336.436C240.126 336.351 240.591 336.267 241.06 336.223C242.58 336.073 244.11 335.973 245.64 335.913C246.908 335.862 248.178 335.824 249.448 335.786L249.449 335.786L249.451 335.786L249.452 335.786L249.454 335.786L249.455 335.786L249.457 335.786L249.458 335.786L249.46 335.786L249.461 335.786L249.463 335.785L249.464 335.785L249.465 335.785L249.467 335.785L249.468 335.785C251.636 335.72 253.805 335.656 255.97 335.523C256.626 335.482 257.273 335.316 257.921 335.149C258.528 334.993 259.136 334.837 259.75 334.783C261.79 334.613 263.84 334.584 265.88 334.594C270.43 334.624 274.98 334.693 279.53 334.773C281.16 334.803 282.53 334.133 283.74 333.163L283.869 333.06L284.058 332.908L284.357 332.67C285.998 331.36 287.642 330.049 288.93 328.344C289.083 328.142 289.236 327.941 289.39 327.74C290.354 326.48 291.313 325.226 291.96 323.733C292.738 321.929 293.606 320.163 294.474 318.396C294.934 317.461 295.393 316.525 295.84 315.583C296.15 314.943 296.42 314.263 296.59 313.563C296.88 312.363 297.59 311.443 298.7 311.083C299.602 310.792 300.479 310.423 301.356 310.054C303.035 309.347 304.714 308.641 306.56 308.483C307.861 308.371 309.154 308.178 310.448 307.985C312.845 307.626 315.245 307.268 317.7 307.423C319.173 307.52 320.65 307.556 322.126 307.592H322.127H322.127H322.127H322.127H322.128H322.128H322.128H322.129H322.129H322.129H322.129H322.13H322.13H322.13H322.13H322.131H322.131C323.721 307.631 325.309 307.669 326.89 307.783C329.401 307.964 331.906 308.231 334.411 308.497H334.411H334.411H334.411H334.411H334.411H334.412H334.412H334.412H334.412H334.412H334.413H334.413H334.413H334.413H334.413C335.519 308.615 336.625 308.733 337.73 308.844C337.788 308.85 337.847 308.857 337.907 308.865L337.908 308.865C338.112 308.89 338.321 308.916 338.53 308.923C341.619 309.07 344.695 309.377 347.77 309.684L347.771 309.684L347.773 309.685L347.774 309.685L347.776 309.685L347.777 309.685L347.778 309.685L347.78 309.685L347.781 309.685L347.782 309.686L347.784 309.686L347.785 309.686L347.787 309.686L347.788 309.686L347.789 309.686L347.791 309.686L347.792 309.687C349.318 309.839 350.843 309.991 352.37 310.124C355.2 310.364 358.04 310.613 360.85 311.013C366.77 311.845 372.474 313.578 378.177 315.311L378.35 315.363C381.353 316.277 384.294 317.379 387.236 318.482L387.237 318.482L387.237 318.482L387.237 318.482L387.237 318.482L387.237 318.482L387.238 318.482L387.238 318.483L387.238 318.483L387.238 318.483L387.239 318.483L387.239 318.483L387.239 318.483L387.239 318.483L387.239 318.483L387.24 318.483L387.24 318.483L387.249 318.487C387.879 318.723 388.509 318.959 389.14 319.193C392.54 320.463 395.92 321.773 399.29 323.124C401.601 324.057 403.899 325.016 406.198 325.976L406.199 325.976L406.2 325.977L406.201 325.977L406.202 325.977L406.203 325.978L406.204 325.978L406.205 325.979L406.206 325.979L406.207 325.98L406.208 325.98L406.209 325.98L406.21 325.981L406.211 325.981L406.214 325.982C407.432 326.49 408.65 326.999 409.87 327.503C411.179 328.046 412.49 328.586 413.8 329.126L413.804 329.128L413.808 329.129L413.812 329.131L413.814 329.132L413.815 329.132L413.817 329.133L413.818 329.134L413.82 329.134L413.821 329.135L413.823 329.136L413.824 329.136L413.826 329.137L413.827 329.138L413.829 329.138L413.831 329.139L413.832 329.139L413.834 329.14L413.835 329.141L413.837 329.141C416.617 330.287 419.395 331.431 422.16 332.603C428.32 335.223 434.7 337.123 441.29 338.313C443.032 338.629 444.778 338.919 446.523 339.208L446.524 339.208L446.525 339.208C449.479 339.698 452.431 340.188 455.36 340.803C459.03 341.574 462.73 341.904 466.42 341.844C470.488 341.778 474.556 341.508 478.621 341.239C480.111 341.141 481.601 341.042 483.09 340.953C483.817 340.91 484.544 340.872 485.271 340.835L485.273 340.835L485.276 340.835L485.278 340.834L485.281 340.834L485.284 340.834C487.561 340.716 489.834 340.599 492.09 340.303C495.307 339.886 498.508 339.28 501.701 338.675L501.701 338.675L501.702 338.675L502.286 338.565L502.828 338.462L503.14 338.404C504.193 338.203 505.238 337.951 506.283 337.698L506.284 337.698L506.284 337.698L506.284 337.697L506.285 337.697L506.285 337.697L506.285 337.697L506.285 337.697L506.285 337.697L506.286 337.697L506.286 337.697L506.286 337.697L506.286 337.697L506.286 337.697L506.287 337.697L506.287 337.697L506.287 337.697L506.287 337.697C507.226 337.47 508.164 337.243 509.11 337.053C510.97 336.683 512.842 336.347 514.714 336.012L514.716 336.012L514.725 336.01C515.678 335.839 516.63 335.669 517.58 335.494C522.27 334.624 526.65 332.933 530.92 330.813C533.227 329.667 535.56 328.575 537.893 327.483L537.893 327.482L537.894 327.482L537.894 327.482L537.894 327.482L537.894 327.482L537.894 327.482L537.894 327.482L537.894 327.482L537.895 327.482L537.895 327.482L537.895 327.482L537.895 327.481L537.895 327.481L537.895 327.481L537.896 327.481L537.896 327.481C540.75 326.145 543.604 324.809 546.41 323.374C548.04 322.538 549.547 321.468 551.055 320.398C551.75 319.906 552.444 319.413 553.15 318.943C558.966 315.092 564.009 310.358 569.069 305.609L569.069 305.609L569.81 304.913C575.37 299.693 580.82 294.363 585.82 288.603C587.301 286.892 588.596 285.022 589.892 283.151L589.892 283.151L589.894 283.148C590.347 282.494 590.799 281.84 591.26 281.193C595.98 274.573 599.78 267.434 603.24 260.094C603.601 259.328 603.902 258.53 604.203 257.732L604.203 257.731C604.311 257.444 604.419 257.158 604.53 256.874C604.541 256.843 604.553 256.811 604.565 256.778C604.632 256.596 604.709 256.389 604.65 256.253C604.36 255.545 604.596 254.92 604.829 254.302C604.885 254.152 604.941 254.003 604.99 253.853C606.442 249.479 607.546 245.018 608.65 240.556L608.651 240.555L608.651 240.554C609.303 237.918 609.956 235.282 610.68 232.663C611.733 228.86 612.18 224.991 612.628 221.119L612.628 221.118C612.707 220.43 612.787 219.742 612.87 219.053C613.202 216.301 613.405 213.535 613.607 210.77C613.698 209.537 613.788 208.304 613.89 207.073C613.904 206.913 613.942 206.757 613.981 206.599L613.982 206.598C613.998 206.53 614.015 206.462 614.03 206.393V187.633C614.014 187.461 613.996 187.289 613.977 187.116L613.977 187.115C613.947 186.846 613.918 186.577 613.9 186.303C613.802 184.639 613.698 182.974 613.594 181.308L613.594 181.306C613.307 176.688 613.019 172.066 612.85 167.443C612.8 166.073 612.29 165.323 611.43 164.464C610.75 163.783 610.04 163.353 609.13 163.123C608.57 162.983 608.01 162.733 607.5 162.453C606.67 161.994 605.8 161.904 604.86 161.914C599.785 161.952 594.924 163.159 590.066 164.365L590.064 164.365L590.062 164.366L590.06 164.366C588.612 164.726 587.163 165.085 585.71 165.414C583.002 166.024 580.332 166.858 577.683 167.685L577.56 167.724C576.371 168.095 575.196 168.509 574.023 168.923L574.022 168.924C572.64 169.411 571.26 169.897 569.86 170.313C566.05 171.447 562.154 172.235 558.26 173.023C557.963 173.083 557.667 173.143 557.37 173.203C552.776 174.139 548.209 175.209 543.641 176.279L543.64 176.279L543.638 176.279L543.636 176.28L543.635 176.28L543.633 176.28L543.631 176.281L543.63 176.281L543.628 176.282L543.626 176.282L543.625 176.282L543.625 176.282C542.094 176.641 540.562 177 539.03 177.353C536.945 177.833 534.865 178.326 532.785 178.818C530.705 179.311 528.625 179.803 526.54 180.284C525.698 180.477 524.842 180.637 523.988 180.796L523.987 180.796L523.986 180.796L523.985 180.796L523.985 180.797L523.984 180.797L523.983 180.797C523.601 180.868 523.219 180.939 522.84 181.013C522.815 181.019 522.79 181.024 522.765 181.029L522.734 181.035C522.694 181.042 522.653 181.05 522.612 181.057L522.611 181.058C522.391 181.098 522.17 181.139 521.97 181.214C519.518 182.137 516.953 182.225 514.38 182.314L514.377 182.314L514.374 182.314L514.182 182.321C514.061 182.325 513.941 182.329 513.82 182.333C511.906 182.402 509.995 182.497 508.085 182.591L508.079 182.591C506.388 182.675 504.699 182.758 503.01 182.823C501.677 182.874 500.344 182.896 499.011 182.918C497.974 182.936 496.937 182.953 495.9 182.983C495.431 182.998 494.961 183.032 494.49 183.066L494.489 183.066C493.965 183.105 493.441 183.143 492.92 183.154C492.432 183.163 491.947 183.147 491.461 183.132L491.459 183.132C490.93 183.115 490.402 183.098 489.87 183.113C488.74 183.143 487.62 183.223 486.5 183.313C486.168 183.338 485.837 183.381 485.506 183.424L485.505 183.424C485.011 183.489 484.517 183.553 484.02 183.553C483.197 183.551 482.374 183.552 481.551 183.553C478.494 183.557 475.439 183.561 472.39 183.404C468.28 183.193 464.16 182.863 460.09 182.303C453.834 181.446 447.6 180.445 441.369 179.445C440.409 179.291 439.449 179.137 438.49 178.983C437.926 178.893 437.362 178.803 436.798 178.713C432.871 178.088 428.942 177.463 425.06 176.623C421.522 175.856 418.003 175.011 414.483 174.167L414.481 174.167L414.48 174.166L414.479 174.166L414.478 174.166L414.477 174.165L414.475 174.165L414.474 174.165L414.473 174.165L414.472 174.164L414.471 174.164L414.47 174.164L414.469 174.164L414.467 174.163L414.466 174.163L414.465 174.163L414.464 174.162L414.461 174.162L414.459 174.161L414.456 174.161L414.453 174.16L414.45 174.159L414.448 174.159L414.445 174.158L414.442 174.157L414.44 174.157L414.437 174.156L414.434 174.155L414.432 174.155L414.429 174.154L414.426 174.154C411.458 173.441 408.489 172.729 405.51 172.063C404.34 171.803 403.26 171.434 402.15 171.023C400.29 170.334 398.404 169.709 396.518 169.084L396.517 169.084L396.516 169.083C393.729 168.16 390.942 167.237 388.24 166.103C385.764 165.063 383.253 164.119 380.743 163.176L380.742 163.176C377.969 162.135 375.198 161.094 372.48 159.923C371.408 159.467 370.312 159.068 369.216 158.669C368.441 158.388 367.666 158.106 366.9 157.803C366.72 157.73 366.581 157.555 366.44 157.379ZM294.691 201.089L294.688 201.091C292.272 202.659 289.856 204.226 287.44 205.783C287.44 205.803 287.44 205.833 287.42 205.873C287.503 206.027 287.587 206.179 287.671 206.332L287.672 206.333C287.873 206.697 288.074 207.06 288.25 207.433C290.29 211.763 291.06 216.354 291.07 221.094C291.077 223.744 291.032 226.39 290.987 229.037L290.987 229.042L290.987 229.049L290.986 229.066C290.966 230.265 290.946 231.464 290.93 232.663L290.93 232.682C290.87 237.296 290.81 241.91 290.76 246.523C290.73 249.533 290.7 252.543 290.68 255.553C290.676 256.561 290.672 257.568 290.668 258.575L290.667 258.687C290.65 262.863 290.632 267.038 290.64 271.214C290.65 272.143 290.77 273.093 290.95 274.013C291.19 275.203 291.6 276.343 292.61 277.143C293.229 277.638 293.845 278.135 294.461 278.632L294.461 278.632L294.461 278.632C295.714 279.644 296.966 280.654 298.24 281.633C303.041 285.328 307.855 289.003 312.672 292.68L312.672 292.68L312.688 292.692C313.745 293.499 314.803 294.306 315.86 295.113L317.12 296.073C323.5 290.713 329.85 285.373 336.21 280.023L336.27 280.071L336.27 280.072C336.309 280.103 336.347 280.132 336.382 280.161C336.416 280.189 336.449 280.216 336.48 280.244C337.08 280.768 337.677 281.296 338.275 281.823C338.872 282.351 339.47 282.878 340.07 283.404C342.77 285.783 345.473 288.163 348.175 290.543C350.878 292.923 353.58 295.303 356.28 297.684C356.47 297.853 356.6 297.863 356.81 297.714C360.524 295.037 364.24 292.362 367.956 289.688L367.99 289.663L368.024 289.639C371.74 286.965 375.456 284.29 379.17 281.613C379.204 281.588 379.238 281.559 379.275 281.526C379.301 281.501 379.33 281.475 379.361 281.446L379.361 281.446L379.364 281.443L379.413 281.398L379.45 281.363C377.23 281.043 375.09 280.733 372.91 280.413C372.96 280.303 372.99 280.244 373.02 280.184L373.021 280.182C373.981 278.513 374.94 276.843 375.92 275.184C377.38 272.723 379.32 270.703 381.7 269.113C383.53 267.893 385.5 266.993 387.58 266.323C387.86 266.233 387.98 266.113 387.97 265.803C387.956 265.438 387.967 265.068 387.978 264.7L387.978 264.699C387.983 264.553 387.987 264.408 387.99 264.263L387.99 264.252C388.03 261.786 388.07 259.32 388.1 256.853L388.1 256.807L388.101 256.802C388.14 252.889 388.18 248.986 388.2 245.073C388.2 244.893 388.08 244.654 387.94 244.523C387.297 243.913 386.648 243.308 385.999 242.704C384.83 241.616 383.661 240.529 382.53 239.404C380.33 237.214 378.59 234.683 377.39 231.803C376.2 228.948 375.468 225.96 374.736 222.97L374.736 222.969L374.736 222.968L374.681 222.745L374.579 222.329C374.533 222.14 374.487 221.952 374.44 221.763C374.41 221.663 374.51 221.483 374.6 221.404C374.982 221.09 375.375 220.783 375.767 220.477L375.771 220.474L375.772 220.473L375.967 220.321L376.13 220.193C377.415 219.189 378.699 218.183 379.984 217.178L380.09 217.095L380.117 217.074L380.128 217.065C382.785 214.985 385.443 212.905 388.1 210.833C388.32 210.663 388.41 210.483 388.4 210.203C388.385 209.843 388.382 209.483 388.38 209.123C388.377 208.763 388.375 208.403 388.36 208.043C388.23 204.563 387.36 201.303 385.48 198.353C383.83 195.753 381.62 193.723 379.07 192.023C378.82 191.844 378.65 191.844 378.39 192.023L378.389 192.024L378.388 192.025C372.889 195.894 367.389 199.764 361.87 203.613C361.54 203.833 361.47 204.043 361.57 204.413C361.828 205.377 362.085 206.34 362.341 207.302L362.347 207.325L362.347 207.326L362.347 207.327C362.674 208.554 363 209.78 363.33 211.003C363.95 213.313 364.52 215.633 364.59 218.033C364.65 220.173 364.66 222.303 364.66 224.443C364.66 228.093 364.65 231.743 364.63 235.393C364.62 238.013 364.6 240.643 364.57 243.263C364.555 244.718 364.535 246.176 364.515 247.633V247.634V247.634V247.634V247.634V247.634V247.635V247.635V247.635V247.635V247.635V247.635V247.636V247.636V247.636C364.495 249.093 364.475 250.549 364.46 252.003C364.435 254.058 364.412 256.111 364.39 258.163C364.367 260.216 364.345 262.268 364.32 264.323L364.32 264.351V264.352C364.31 265.353 364.3 266.363 364.28 267.363C364.23 269.583 363.05 270.913 360.95 271.083C360.73 271.103 360.45 271.003 360.29 270.863C359.25 269.963 358.14 269.163 356.95 268.464C354.67 267.124 353.11 265.183 352.39 262.613C351.94 260.983 351.82 259.314 351.88 257.624C351.94 255.904 352.005 254.183 352.071 252.461L352.072 252.453L352.072 252.451L352.072 252.448L352.072 252.445L352.072 252.442C352.172 249.834 352.272 247.224 352.35 244.613C352.44 241.424 352.48 238.225 352.52 235.035V235.035V235.035V235.034V235.034V235.034V235.034V235.033V235.033V235.033V235.033V235.032V235.032V235.032V235.031V235.031V235.031V235.031V235.03L352.52 235.003C352.55 232.863 352.572 230.725 352.595 228.587L352.595 228.573L352.595 228.56V228.56V228.56C352.618 226.422 352.64 224.284 352.67 222.143C352.7 219.883 352.76 217.623 352.84 215.363C353 211.093 352.51 206.913 351.29 202.823C350.12 198.903 347.91 195.713 344.39 193.513C344.13 193.353 343.96 193.343 343.7 193.513C338.799 196.732 333.885 199.944 328.974 203.154L328.943 203.174C327.562 204.078 326.181 204.981 324.8 205.883L324.798 205.885L324.79 205.891L324.72 205.941L324.636 206.002C324.578 206.044 324.516 206.087 324.45 206.133C324.55 206.313 324.64 206.464 324.74 206.613C325.98 208.543 326.95 210.613 327.67 212.793C328.83 216.303 329.22 219.933 329.23 223.613C329.25 231.773 329.27 239.934 329.3 248.093C329.307 249.167 329.322 250.24 329.338 251.314C329.346 251.85 329.353 252.387 329.36 252.923C329.375 253.708 329.395 254.494 329.415 255.28L329.416 255.284L329.416 255.284V255.285C329.465 257.201 329.515 259.12 329.48 261.033C329.4 265.133 327.58 268.283 324.02 270.393C323.58 270.653 323.21 270.773 322.75 270.443C322.573 270.315 322.373 270.217 322.174 270.118L322.173 270.118C322.047 270.056 321.92 269.993 321.8 269.923C318.82 268.203 316.68 265.803 315.71 262.443C315.25 260.853 315.13 259.233 315.16 257.583L315.161 257.526V257.526L315.161 257.523C315.221 254.753 315.28 251.993 315.31 249.223C315.343 246.453 315.359 243.678 315.374 240.904V240.901V240.9C315.382 239.511 315.39 238.122 315.4 236.733L315.46 227.404C315.47 224.583 315.48 221.773 315.5 218.953C315.502 218.545 315.504 218.137 315.505 217.729V217.728C315.512 216.097 315.518 214.465 315.55 212.833C315.61 210.203 315.56 207.583 315.09 204.993C314.21 200.113 311.91 196.053 308.14 192.823C307.9 192.613 307.74 192.613 307.47 192.783C303.22 195.553 298.96 198.323 294.7 201.083L294.691 201.089ZM469.176 277.75C469.346 277.387 469.516 277.024 469.69 276.663C469.69 276.633 469.69 276.603 469.73 276.563C469.704 276.525 469.678 276.487 469.652 276.449L469.652 276.448L469.652 276.448C469.556 276.306 469.459 276.163 469.38 276.013C468.14 273.633 467.68 271.073 467.72 268.413C467.738 267.203 467.763 265.99 467.789 264.777L467.789 264.775L467.789 264.759C467.821 263.233 467.853 261.707 467.87 260.184C467.903 257.437 467.919 254.69 467.934 251.943C467.942 250.57 467.95 249.197 467.96 247.823C467.98 243.663 468.01 239.494 468.04 235.333C468.055 232.902 468.068 230.472 468.08 228.043L468.08 227.955V227.954V227.954V227.954V227.953V227.953V227.952V227.952V227.951V227.951V227.95V227.95V227.949V227.949V227.948V227.948V227.948C468.093 225.554 468.105 223.16 468.12 220.763C468.12 220.215 468.125 219.669 468.13 219.123L468.13 219.118L468.13 219.114C468.135 218.568 468.14 218.022 468.14 217.473C468.14 217.276 468.14 217.079 468.141 216.882L468.142 216.601L468.143 216.314V216.313V216.313V216.313V216.312V216.312V216.311V216.311V216.311V216.31V216.31V216.31V216.31C468.153 213.885 468.162 211.457 467.8 209.043C467.23 205.273 466.01 201.763 463.82 198.613C462.56 196.793 461.05 195.203 459.32 193.773C454.33 197.013 449.36 200.243 444.36 203.493L444.387 203.512L444.441 203.55C444.457 203.562 444.473 203.572 444.488 203.582C444.528 203.61 444.564 203.633 444.6 203.654C445.33 204.054 446.058 204.456 446.786 204.859L446.793 204.863C447.518 205.264 448.243 205.665 448.97 206.063C449.17 206.173 449.29 206.273 449.19 206.543C448.981 207.107 448.784 207.675 448.588 208.244L448.587 208.246L448.587 208.247C448.296 209.09 448.004 209.934 447.67 210.763C446.12 214.594 443.7 217.663 439.94 219.563C439.84 219.603 439.77 219.813 439.78 219.943C439.809 220.236 439.848 220.529 439.887 220.821L439.887 220.822L439.887 220.822L439.887 220.828C439.954 221.333 440.021 221.838 440.04 222.344C440.13 224.734 440.19 227.133 440.22 229.533C440.234 230.591 440.214 231.654 440.193 232.715V232.716L440.188 233L440.183 233.271L440.18 233.412L440.177 233.624L440.174 233.802C440.172 233.893 440.171 233.983 440.17 234.073C440.12 237.683 440.08 241.284 440.04 244.893C440.04 245.043 440.1 245.224 440.19 245.344C443.29 249.284 445.79 253.604 448.23 257.964C450.79 262.553 452.61 267.354 452.54 272.714C452.53 273.014 452.47 273.214 452.21 273.404C450.176 274.933 448.144 276.465 446.112 277.997C444.079 279.53 442.046 281.063 440.01 282.594C439.79 282.764 439.68 282.934 439.71 283.214C439.753 283.59 439.788 283.967 439.823 284.343L439.823 284.344C439.904 285.199 439.983 286.051 440.15 286.883C440.4 288.163 440.9 289.353 441.98 290.203C443.539 291.438 445.1 292.672 446.661 293.906C448.225 295.142 449.789 296.378 451.35 297.613C451.402 297.653 451.459 297.692 451.52 297.731C451.552 297.752 451.585 297.773 451.62 297.793C451.849 297.575 452.075 297.364 452.299 297.155L452.31 297.145C452.522 296.947 452.732 296.752 452.94 296.553C453.839 295.708 454.743 294.868 455.647 294.027L455.658 294.017L455.661 294.014L455.663 294.012L455.664 294.011L455.664 294.011C457.76 292.062 459.857 290.112 461.9 288.103C464.25 285.793 466.29 283.203 467.9 280.313C468.365 279.482 468.771 278.616 469.176 277.75ZM414.39 297.973C414.267 297.858 414.148 297.748 414.03 297.64L414.03 297.64C413.822 297.449 413.622 297.265 413.43 297.073C409.22 292.763 404.67 288.853 399.54 285.653C393.55 281.913 387.09 279.423 380.12 278.263C379.648 278.188 379.172 278.118 378.662 278.042L378.655 278.041L378.653 278.041L378.4 278.004C378.247 277.981 378.091 277.958 377.93 277.933C378.093 277.68 378.25 277.43 378.404 277.184L378.404 277.183L378.405 277.182L378.411 277.173L378.411 277.172L378.412 277.171C378.766 276.606 379.106 276.063 379.48 275.543C381.62 272.583 384.56 270.723 387.96 269.513C390.68 268.543 393.5 268.023 396.36 267.753C397.82 267.613 399.29 267.503 400.76 267.463C404.46 267.363 407.96 268.263 411.34 269.693C414.674 271.098 417.792 272.904 420.918 274.714L420.918 274.714L420.918 274.715L420.919 274.715L421.02 274.773C421.16 274.853 421.309 274.933 421.459 275.013L421.46 275.013C421.471 275.019 421.486 275.018 421.518 275.017C421.543 275.015 421.578 275.013 421.63 275.013L421.511 274.519C421.283 273.569 421.057 272.631 420.81 271.693C420.76 271.503 420.62 271.323 420.48 271.173C419.615 270.189 418.755 269.201 417.894 268.212C415.957 265.988 414.02 263.764 412.04 261.583C409.66 258.953 406.97 256.643 404.29 254.343C402.617 252.907 400.94 251.476 399.262 250.045L399.257 250.041L399.256 250.041C396.321 247.538 393.386 245.035 390.48 242.503C388.47 240.753 386.54 238.913 384.65 237.043C381.9 234.313 380.17 230.973 379.14 227.253C378.988 226.696 378.84 226.138 378.692 225.579C378.478 224.773 378.264 223.966 378.04 223.163C377.96 222.873 378.02 222.713 378.25 222.543L378.257 222.538C382.595 219.15 386.932 215.762 391.27 212.363C393.862 210.335 396.456 208.307 399.05 206.279L399.065 206.267L399.106 206.234C404.998 201.627 410.891 197.017 416.78 192.403C417.08 192.173 417.28 192.163 417.6 192.343C426.72 197.393 435.84 202.433 444.97 207.463C445.33 207.663 445.39 207.823 445.25 208.193C444.54 210.163 443.67 212.043 442.33 213.663C440.39 216.013 437.86 217.333 434.91 217.933C432.38 218.443 429.84 218.443 427.29 218.223C422.78 217.833 418.39 216.823 414.04 215.663C413.75 215.583 413.56 215.633 413.34 215.833C411.46 217.483 409.61 219.153 408.04 221.113C407.85 221.353 407.83 221.503 407.99 221.753C409.31 223.833 411.11 225.433 413.15 226.753C414.201 227.431 415.267 228.082 416.334 228.733L416.334 228.733L416.335 228.734L416.335 228.734L416.336 228.734L416.336 228.735L416.337 228.735L416.337 228.736L416.338 228.736L416.339 228.736L416.339 228.737L416.34 228.737L416.34 228.737L416.341 228.738L416.341 228.738L416.342 228.739L416.342 228.739C417.333 229.344 418.324 229.948 419.3 230.573C429.41 237.083 437.53 245.493 443.46 255.983C443.709 256.426 443.961 256.867 444.213 257.308L444.213 257.308C445.386 259.36 446.558 261.412 447.48 263.593C448.5 266.003 449.19 268.483 449.31 271.103C449.32 271.383 449.31 271.613 449.04 271.823C437.619 280.437 426.197 289.06 414.776 297.684L414.75 297.703C414.652 297.794 414.54 297.87 414.448 297.933C414.428 297.947 414.408 297.961 414.39 297.973ZM579.285 94.355C578.458 93.2422 577.618 92.1131 576.75 90.9635C586.7 85.6235 598 83.5435 609.35 81.4935C609.308 81.369 609.282 81.2668 609.26 81.1806C609.23 81.0592 609.207 80.9695 609.16 80.8935C604.69 73.7535 600.04 66.6635 595.16 59.6535C594.92 59.3135 594.14 58.9735 593.71 59.0235C584.86 60.0235 576.13 61.2735 567.5 62.7135C565.48 63.0535 564.27 64.1835 563.76 65.9535C563.004 68.5703 562.244 71.1861 561.484 73.8019L561.484 73.8045L561.483 73.807L561.482 73.8096L561.481 73.8122L561.481 73.8147L561.48 73.8173L561.479 73.8199L561.478 73.8224C559.778 79.6765 558.077 85.5302 556.42 91.3935C556.26 91.9535 556.54 92.8535 556.96 93.3035C557.972 94.38 559.038 95.4103 560.105 96.4408L560.105 96.441L560.105 96.4415L560.106 96.4418C560.683 96.9998 561.261 97.558 561.83 98.1235C566.49 102.733 571.06 107.413 575.55 112.183C583.4 109.783 591.31 107.563 599.51 105.463C597.98 102.743 596.47 100.123 594.9 97.4435C592.904 97.7982 590.949 98.1684 589.011 98.5351L589.007 98.536L589.005 98.5363L589.004 98.5365L589.003 98.5366C587.448 98.831 585.904 99.1232 584.36 99.4035C583.88 99.4935 583.03 99.3235 582.78 99.0035C581.607 97.4787 580.458 95.9332 579.285 94.355ZM579.83 79.4535C580.28 75.9235 580.84 72.5735 584.08 70.1435C584.308 70.5472 584.535 70.946 584.76 71.3413L584.768 71.3549L584.771 71.3603L584.776 71.3701L584.776 71.3702L584.776 71.3703L584.777 71.3704L584.777 71.3705L584.777 71.3706L584.777 71.3707L584.777 71.3708L584.777 71.3709L584.777 71.371L584.777 71.3711L584.777 71.3712L584.777 71.3712C585.75 73.0802 586.685 74.724 587.51 76.4135C587.68 76.7635 587.29 77.5035 586.91 77.7935C584.95 79.3035 582.53 79.5835 579.83 79.4535ZM325.66 26.5635C320.17 29.1635 314.79 31.9135 309.2 34.8435C312.96 37.3335 315.28 40.3535 315.81 44.1135C316.21 46.9222 316.681 49.7238 317.153 52.5256L317.153 52.5275L317.153 52.5293L317.153 52.5311L317.154 52.533L317.154 52.5348L317.154 52.5366L317.155 52.5385L317.155 52.5403C318.616 61.2254 320.077 69.9131 319.42 78.8235C319.39 79.2835 319.83 80.0235 320.26 80.2135L320.972 80.5315C323.694 81.747 326.414 82.9618 329.21 83.9735C330.19 84.3335 331.88 84.3235 332.6 83.7535C334.729 82.0743 336.792 80.3138 338.889 78.5235L338.89 78.5232L338.892 78.5215L338.897 78.5174L338.901 78.5133C340.248 77.3643 341.608 76.2031 343.01 75.0435C339.08 73.0135 338.01 69.7435 337.66 66.0935C337.459 63.9918 337.232 61.8901 337.006 59.7884C336.805 57.9201 336.604 56.0518 336.42 54.1835C336.19 51.8235 337.02 49.8335 339.26 48.3935C339.486 48.249 339.713 48.1057 339.939 47.9626C340.826 47.4022 341.712 46.8427 342.54 46.2135C343.36 45.5835 344.05 45.6435 344.93 46.0435C347.91 47.3835 348.52 49.8535 348.75 52.4935C349.191 57.647 349.606 62.8071 350.021 67.9684L350.021 67.9706L350.021 67.9728L350.022 67.975L350.022 67.9772L350.022 67.9794L350.022 67.9816L350.022 67.9838L350.023 67.9949L350.188 70.0381L350.33 71.8035C350.73 76.6935 353.4 80.1135 357.92 82.3035C358.41 82.5435 359.34 82.4835 359.81 82.1935C361.278 81.2956 362.714 80.3481 364.151 79.3995L364.152 79.3988L364.154 79.3981L364.155 79.3973L364.156 79.3966L364.157 79.3959L364.158 79.3951L364.159 79.3944L364.16 79.3937C364.865 78.9287 365.57 78.4634 366.28 78.0035C368.43 76.6135 370.58 75.2435 372.86 73.8235C369.53 71.0635 368.59 67.5835 368.46 63.7835C368.363 60.9297 368.263 58.0758 368.163 55.222C367.963 49.5158 367.763 43.8097 367.59 38.1035C367.56 37.1335 367.23 36.4735 366.37 35.8535C365.068 34.9087 363.763 33.965 362.455 33.0202C359.805 31.1051 357.148 29.1855 354.51 27.2435C353.35 26.3935 352.56 26.4335 351.39 27.1935C349.568 28.3725 347.746 29.5472 345.925 30.7206L345.899 30.7378C343.822 32.0765 341.748 33.4136 339.68 34.7535C339.082 35.1386 338.432 35.4532 337.758 35.7792C337.417 35.9442 337.069 36.112 336.72 36.2935C336.613 36.1255 336.511 35.9654 336.414 35.8116L336.25 35.5511L336.247 35.5468C335.936 35.0544 335.665 34.6243 335.38 34.2035C335.211 33.9513 335.042 33.6985 334.874 33.4452C334.693 33.1717 334.512 32.8978 334.331 32.6237L334.33 32.6229L334.33 32.6221C333.283 31.0362 332.233 29.4461 331.07 27.9235C329.82 26.2935 327.45 25.7135 325.66 26.5635ZM285.23 29.9435C294.29 35.7735 302.98 41.7035 311.71 48.0135C309.979 49.0728 308.319 50.1126 306.684 51.1366C305.448 51.9107 304.227 52.6758 303 53.4335C296.66 57.3535 290.39 61.3435 284.27 65.4635C283.571 65.9347 282.94 66.4984 282.314 67.0577C282.143 67.2106 281.972 67.3632 281.8 67.5135C280.43 68.7235 280.41 69.1535 281.88 70.2235C282.57 70.7235 283.42 71.1035 284.27 71.3435C285.291 71.6353 286.314 71.9228 287.335 72.21L287.338 72.2109L287.339 72.2111L287.339 72.2113L287.34 72.2115L287.34 72.2117L287.341 72.2119L287.342 72.212C290.098 72.9871 292.847 73.7603 295.56 74.6135C296.61 74.9435 297.4 74.8935 298.36 74.2835C301.334 72.4089 304.409 70.6442 307.568 68.8317L308 68.5835C309.89 70.8335 311.68 73.0135 313.56 75.3135C311.208 76.8289 308.972 78.3055 306.743 79.7776L305.84 80.3735C301.41 83.3035 297.02 86.2535 292.74 89.3135C291.93 89.8935 291.26 89.9935 290.33 89.6535C284.9 87.6335 279.38 85.7335 273.79 83.9335C272.74 83.5935 271.65 83.3135 270.55 83.1935C265.21 82.6335 262.85 80.6435 261.84 75.6535C260.62 69.6217 259.364 63.599 258.107 57.5681L257.92 56.6735C257.757 55.8951 257.575 55.1211 257.393 54.3476L257.393 54.3465C257.108 53.1331 256.824 51.9208 256.61 50.6935C256.31 48.9735 257.21 47.5335 258.77 46.4935C267.34 40.7935 276.14 35.3135 285.23 29.9435ZM277.16 46.4035C277.77 49.8335 278.35 53.0935 278.97 56.5635C281.62 54.6535 284.1 52.8835 286.83 50.9835C285.384 50.4442 284.148 49.6694 282.929 48.9055C281.165 47.7999 279.437 46.7169 277.16 46.4035ZM260.27 92.2173L260.274 92.2142C261.854 90.9869 263.439 89.7562 265.05 88.5435C258.55 82.9635 256.7 80.3535 255.18 73.7435C254.305 69.9868 253.45 66.2245 252.595 62.4618L252.594 62.4574L252.593 62.453L252.592 62.4486L252.591 62.4442L252.59 62.4398L252.589 62.4354C250.886 54.9391 249.183 47.4413 247.32 39.9835C245.98 34.5935 244.09 29.3335 242.19 24.1035C241.13 21.1935 239.16 18.7535 235.62 17.5335C234.14 17.0235 232.98 17.1035 231.76 18.2235C231.051 18.876 230.249 19.4596 229.447 20.0434L229.446 20.0438L229.444 20.0454C229.104 20.293 228.763 20.5406 228.43 20.7935C225.1 23.3335 221.81 25.9035 218.45 28.5735C224.69 33.9435 226.54 40.9135 227.67 48.4335C226.884 48.3077 226.126 48.2052 225.391 48.1057L225.382 48.1045L225.379 48.1041C224.013 47.9195 222.726 47.7454 221.48 47.4535C218.7 46.8035 216.55 47.5235 214.71 49.6135C210.95 53.8835 207.21 58.1535 203.54 62.4535C202.19 64.0435 201.91 65.6835 202.5 67.4535L202.84 68.4654L202.845 68.4792L202.845 68.4799L202.845 68.4807L202.846 68.4814L202.846 68.4821L202.846 68.4828C205.861 77.4491 208.872 86.4074 211.81 95.3935C212.52 97.5835 213.9 98.7635 216.35 99.1035C220.94 99.7335 225.48 100.483 229.96 101.423C232.68 101.994 234.7 101.293 236.42 99.1735C237.655 97.6546 238.984 96.2028 240.326 94.7386L240.326 94.7379C240.777 94.2455 241.23 93.7517 241.68 93.2535C242.233 93.6786 242.766 94.1013 243.29 94.5172L243.291 94.5179L243.291 94.518C244.282 95.305 245.243 96.067 246.25 96.7735C249.27 98.8935 251.37 98.9535 254.4 96.7035C256.376 95.2407 258.319 93.7321 260.268 92.2182L260.27 92.2173ZM220.249 61.3543C220.259 61.2339 220.272 61.0747 220.28 60.8535C221.057 60.9731 221.825 61.0833 222.583 61.192C224.739 61.5015 226.817 61.7999 228.83 62.2735C231.17 62.8235 232.64 64.4635 233.2 66.5135C234.468 71.1445 235.652 75.8033 236.836 80.4609L236.838 80.4676L236.838 80.4696L236.839 80.4717L236.839 80.4749L236.84 80.4781L236.842 80.4859C237.244 82.0656 237.645 83.6452 238.05 85.2235C231.81 86.8335 226.94 84.9735 225.18 79.7335C223.793 75.5787 222.713 71.3199 221.633 67.0616C221.18 65.2729 220.726 63.4843 220.25 61.7035C220.226 61.6209 220.234 61.5277 220.249 61.3543ZM203.991 85.8095L204.36 86.9849C205.446 90.4472 206.532 93.9112 207.66 97.3635C207.95 98.2635 207.88 98.8935 207.1 99.6135C201.66 104.683 196.39 109.873 191.25 115.133C189.64 116.783 187.75 117.593 185.4 117.453C179.15 117.093 172.84 116.903 166.5 116.773C164.58 116.733 163.22 115.893 162.51 114.233C159.905 108.083 157.306 101.927 154.708 95.7738L154.645 95.6247C153.893 93.8439 153.142 92.0635 152.39 90.2835C151.62 88.4635 151.85 86.7035 153.21 84.9235C158.17 78.4335 163.23 71.9735 168.55 65.6235C168.93 65.1635 169.88 64.7535 170.48 64.7835C178.75 65.2435 186.94 65.9635 195.05 66.8135C197.41 67.0635 198.53 68.4135 199.12 70.3035C200.166 73.6732 201.229 77.043 202.292 80.4128L202.293 80.4185L202.295 80.4243L202.297 80.4301L202.299 80.4359L202.301 80.4416C202.657 81.5722 203.014 82.7029 203.37 83.8335C203.577 84.492 203.784 85.1507 203.991 85.8095ZM188.345 98.9946L188.345 98.9935C188.234 98.1731 188.136 97.4484 187.91 96.7635C187.434 95.291 186.914 93.8295 186.394 92.3678L186.393 92.3656L186.393 92.3651L186.393 92.3645L186.393 92.364L186.393 92.3634L186.392 92.3629C185.592 90.1134 184.792 87.8636 184.15 85.5735C182.63 80.1435 180.56 78.5135 174.25 78.6235C173.925 78.6285 173.599 78.636 173.274 78.6435H173.274C172.949 78.651 172.625 78.6585 172.3 78.6635C171.04 78.6735 170.69 79.3235 170.99 80.2635L170.991 80.2672C172.921 86.266 174.85 92.2647 176.91 98.2135C177.16 98.9235 178.07 99.6835 178.87 99.8735C180.71 100.323 182.64 100.553 184.56 100.673C185.408 100.721 186.278 100.603 187.197 100.478H187.197H187.198C187.633 100.419 188.08 100.359 188.54 100.313C188.46 99.845 188.401 99.4079 188.345 98.995L188.345 98.9946ZM154.303 105.755L154.284 105.708L154.278 105.694C153.846 104.647 153.413 103.6 152.98 102.553C152.445 101.262 151.901 99.9753 151.356 98.6883L151.352 98.6786C150.033 95.5635 148.714 92.4485 147.54 89.2735C146.64 86.8735 144.94 85.9235 142.18 85.7835C140.449 85.6946 138.714 85.6102 136.978 85.5258L136.971 85.5255L136.969 85.5254H136.969C132.46 85.3063 127.94 85.0865 123.43 84.7835C119.94 84.5535 117.41 85.6935 115.12 88.2935C111.16 92.7935 107.16 97.2535 103.15 101.693C100.92 104.163 100.35 106.493 101.76 109.093C103.202 111.758 104.565 114.465 105.929 117.172C106.172 117.656 106.416 118.14 106.66 118.623C109.405 124.054 112.13 129.494 114.855 134.934L114.87 134.963C115.67 136.573 116.98 137.413 118.96 137.293C125.96 136.883 132.93 136.623 139.84 136.493C141.7 136.453 143.19 135.744 144.41 134.333C148.95 129.123 153.6 123.973 158.42 118.923C159.17 118.153 159.24 117.563 158.86 116.673C157.313 113.046 155.808 109.4 154.303 105.755ZM120.226 102.937L119.41 101.213C123.07 101.173 126.35 101.143 129.59 101.213C130.01 101.223 130.57 101.573 130.73 101.913C133.076 107.015 135.381 112.138 137.684 117.258C138.139 118.27 138.594 119.282 139.05 120.293C139.074 120.341 139.062 120.402 139.043 120.507C139.029 120.579 139.012 120.671 139 120.793C137.438 120.853 135.87 120.927 134.3 121.002C132.705 121.077 131.108 121.153 129.51 121.213C129.18 121.223 128.72 120.853 128.57 120.533C126.364 115.918 124.175 111.287 121.939 106.56L121.937 106.555L121.933 106.548L121.758 106.176C121.25 105.102 120.739 104.023 120.226 102.937ZM0 135.253C3.39001 128.533 6.90997 121.833 10.62 115.063C16.78 114.873 21.23 117.263 24.1 121.533C27.8506 127.107 31.504 132.745 35.1584 138.385L35.1678 138.399L35.1733 138.407L35.1788 138.416C37.4904 141.983 39.8024 145.551 42.14 149.103C42.3236 149.383 42.5067 149.663 42.6898 149.943L42.6911 149.945L42.6924 149.947L42.6933 149.949C44.1155 152.125 45.5449 154.312 47.28 156.233C49.49 158.673 52.77 159.093 56.28 158.493C56.76 158.413 57.37 157.843 57.62 157.373C59.41 154.113 59.03 151.123 57.27 148.393C51.79 139.923 46.27 131.483 40.74 123.043C38.3 119.313 34.87 116.583 30.13 114.963C31.45 112.593 32.77 110.263 34.11 107.933C35.2779 105.9 36.4685 103.872 37.6597 101.844L37.6641 101.837C38.5623 100.307 39.4607 98.7771 40.35 97.2435C40.87 96.3435 41.39 96.0335 42.43 96.0135C47.32 95.9235 50.89 97.9035 53.26 101.103C56.13 104.973 58.6 109.133 60.99 113.313C63.8474 118.321 66.6261 123.376 69.4042 128.43L69.4071 128.435C70.8281 131.021 72.2489 133.605 73.68 136.183C75.56 139.573 78.4 141.513 82.88 141.063C83.28 141.023 83.69 141.043 84.08 141.103C84.168 141.116 84.2573 141.129 84.3472 141.142C85.3002 141.284 86.3331 141.437 86.79 140.313C87.17 139.373 87.41 138.123 87.07 137.293C86.3723 135.605 85.4673 134.004 84.5641 132.407C84.328 131.989 84.0921 131.572 83.86 131.153C82.2763 128.302 80.6819 125.455 79.0872 122.608C75.8285 116.791 72.5692 110.972 69.4 105.103C67.44 101.463 64.4 98.7435 61.27 96.0735C60.22 95.1735 60.1 94.4135 60.96 93.0235C62.2473 90.9469 63.5169 88.8613 64.7882 86.7729L64.7921 86.7664L64.7968 86.7588L64.8014 86.7511L64.8221 86.7171C66.5516 83.8762 68.2843 81.0298 70.07 78.1935C76.71 78.0635 81.73 80.1835 84.37 85.1835C87.7078 91.4935 90.9314 97.8606 94.1556 104.229L94.1561 104.23L94.1566 104.231L94.157 104.232L94.1576 104.233C95.6081 107.098 97.0587 109.963 98.52 112.823C99.3236 114.401 100.128 115.977 100.933 117.553C102.542 120.703 104.15 123.854 105.75 127.013C106.32 128.133 106.89 129.263 107.37 130.433C107.96 131.893 108.09 133.413 107.22 134.963C102.39 143.593 97.82 152.273 93.51 161.003C93.495 161.034 93.4776 161.063 93.4579 161.094C93.444 161.115 93.429 161.136 93.4127 161.159C93.378 161.207 93.3377 161.258 93.2915 161.317C93.271 161.343 93.2493 161.371 93.2264 161.4C93.1993 161.435 93.1705 161.473 93.14 161.513C85.83 160.383 78.4 159.404 70.77 158.553C68.21 165.133 65.82 171.633 63.5 178.293C59.5412 178.213 55.6224 178.203 51.6937 178.193H51.6927H51.6918H51.6909H51.69C50.7123 178.191 49.7341 178.183 48.7548 178.176H48.75H48.7452H48.7405H48.7388C45.4866 178.15 42.223 178.125 38.93 178.293C36.1 178.443 34.22 177.353 32.81 175.353C30.4955 172.067 28.1898 168.775 25.8839 165.483L25.8795 165.477C22.1593 160.165 18.4387 154.853 14.68 149.563C14.0178 148.631 13.3871 147.673 12.756 146.714C10.6997 143.588 8.6402 140.458 5.47998 138.223C4.37067 137.432 3.08154 136.845 1.79266 136.259C1.25745 136.015 0.72229 135.772 0.200012 135.513C0.119995 135.423 0.0599976 135.343 0 135.253ZM209.833 25.344C210.242 24.9345 210.651 24.5245 211.06 24.1135C205.51 22.0435 200.11 20.1035 194.63 18.3035C194.26 18.1835 193.42 18.5035 193.04 18.8235C188.7 22.5135 184.47 26.2935 180.3 30.1035C179.18 31.1235 178.65 32.2135 179.09 33.5335C179.824 35.7147 180.543 37.9008 181.262 40.0865C182.316 43.2919 183.37 46.4966 184.47 49.6835C184.64 50.1835 185.41 50.6835 186.02 50.7735C186.859 50.8976 187.697 51.0211 188.535 51.1445L188.543 51.1455L188.55 51.1465C193.243 51.8375 197.923 52.5266 202.56 53.3235C203.46 53.4835 203.96 53.2835 204.52 52.6035C207.18 49.3835 209.94 46.2135 212.72 43.0535C212.982 42.7548 213.242 42.4562 213.505 42.1545L213.916 41.682L213.919 41.6787C214.056 41.5204 214.195 41.3608 214.335 41.1996C214.517 40.9906 214.702 40.7789 214.89 40.5635C214.385 40.3539 213.898 40.1538 213.423 39.9592L213.421 39.958C212.29 39.4941 211.235 39.0612 210.2 38.6035C209.37 38.2435 208.81 38.3635 208.15 39.0535C206.85 40.4235 205.47 41.7435 204.08 43.0535C203.74 43.3735 203.07 43.7835 202.75 43.7035C201.248 43.3211 199.769 42.8921 198.272 42.4579C197.577 42.2561 196.877 42.0533 196.17 41.8535C199.589 35.6082 204.674 30.5134 209.833 25.344ZM194.727 33.6422C194.594 33.8018 194.458 33.9644 194.32 34.1308C194.122 34.3697 193.919 34.6165 193.71 34.8735C192.28 32.5835 191.48 30.6535 192.28 28.0935C192.634 28.2454 192.982 28.3916 193.324 28.5355L193.325 28.5358C194.424 28.9979 195.464 29.435 196.44 29.9535C196.74 30.1135 196.92 30.8435 196.73 31.1135C196.142 31.9434 195.482 32.7351 194.744 33.6209L194.727 33.6422ZM161.112 64.586L161.106 64.5945C160.139 65.8745 159.157 67.1761 158.16 68.4635C157.91 68.7835 157.26 69.1435 156.88 69.1035C155.198 68.9608 153.52 68.79 151.812 68.6161L151.81 68.6159C150.644 68.4972 149.464 68.377 148.26 68.2635C148.891 63.9986 147.372 60.4035 145.859 56.821C145.477 55.9179 145.096 55.0156 144.75 54.1035C142.766 48.8447 140.714 43.6107 138.662 38.3771L138.66 38.3715C138.106 36.959 137.552 35.5464 137 34.1335C136.02 31.6135 134.22 29.6735 131.23 28.3235C134.01 24.8635 136.82 21.4435 139.7 18.0035C143.4 18.3135 145.81 19.7735 146.85 22.6635C148.66 27.6535 150.52 32.6235 152.4 37.5835C152.507 37.8701 152.751 38.1079 152.997 38.3471C153.12 38.4668 153.243 38.5868 153.35 38.7135C153.41 38.6653 153.471 38.618 153.533 38.5714C153.606 38.5161 153.681 38.4615 153.756 38.407C154.063 38.1832 154.369 37.9595 154.59 37.6835L154.594 37.6791C156.952 34.7006 159.311 31.722 161.83 28.6035C165.92 29.8235 169.99 31.0635 173.99 32.4035C174.4 32.5435 174.73 33.0335 174.85 33.4435C175.15 34.3989 175.455 35.3527 175.759 36.3064C176.765 39.4552 177.771 42.6028 178.6 45.8035C179.48 49.2035 181.73 51.4535 185.37 53.0035C184.577 53.8876 183.81 54.7654 183.052 55.6325C181.487 57.4234 179.96 59.1693 178.33 60.8335C177.78 61.4035 176.26 61.6035 175.33 61.4735C171.72 60.9935 169.27 59.1635 168.16 56.1235C167.374 53.9635 166.642 51.7819 165.91 49.6003C165.422 48.1459 164.934 46.6915 164.43 45.2435C164.21 44.6035 163.94 43.9435 163.51 43.4235C162.47 42.1835 160.97 42.2235 159.56 43.4235C157.29 45.3535 156.29 47.6035 157.11 50.0135C158.03 52.7435 159.1 55.4335 160.32 58.0435C160.736 58.9565 161.369 59.7704 162.051 60.6484C162.385 61.0783 162.731 61.5236 163.07 62.0035C162.425 62.8467 161.773 63.7114 161.112 64.586ZM101.991 56.1793C103.842 56.2614 105.715 56.3446 107.62 56.4535C107.07 50.9335 110.7 46.7035 114.9 42.2135C115.251 42.8114 115.604 43.3789 115.948 43.9304C116.702 45.1408 117.408 46.2744 117.93 47.4835C119.533 51.1911 121.108 54.9104 122.682 58.6294C124.692 63.3761 126.701 68.1224 128.77 72.8435C129.26 73.9635 130.26 75.1635 131.43 75.6135C132.695 76.1006 134.116 76.3131 135.668 76.5452C136.41 76.6561 137.181 76.7715 137.98 76.9235C138.764 75.1354 139.56 73.3713 140.351 71.6171C141.175 69.7905 141.994 67.9746 142.79 66.1535C143.39 64.7935 143.23 63.5335 142.01 62.5235C141.41 62.0235 141.03 61.2635 140.74 60.5435C139.473 57.3735 138.221 54.1972 136.969 51.0213C135.503 47.3044 134.038 43.5881 132.55 39.8835C132.347 39.3821 132.153 38.8763 131.958 38.3702C130.816 35.404 129.671 32.4291 126.92 30.2935C126.188 29.7321 126.636 29.2574 127.113 28.7527C127.196 28.6641 127.281 28.5746 127.36 28.4835C128.556 27.0859 129.78 25.7026 131.003 24.3195C133.185 21.8529 135.365 19.3872 137.39 16.8435C138.459 15.5138 138.871 13.8216 139.262 12.2132C139.321 11.9709 139.38 11.7305 139.44 11.4935C139.57 10.9635 138.82 9.98346 138.2 9.89346C133.582 9.24353 128.876 8.81665 123.892 8.36453L123.66 8.34348C123.93 13.1235 121.04 16.8435 117.5 20.5035C113.8 24.3335 110.27 28.2635 106.84 32.2435C102.67 37.0835 98.64 42.0035 94.73 46.9735C93.17 48.9635 91.85 51.1035 92.04 53.3535C92.12 54.2535 92.71 55.6535 93.4 55.7035C96.2299 55.9235 99.0822 56.0501 101.991 56.1793Z" fill="black"/>
</svg>
